# 3ds Max Wavefront OBJ Exporter v0.97b - (c)2007 guruware
# File Created: 29.05.2019 22:38:50

#
# object window_frame_low
#

v  -16.5919 -49.6258 -0.7541
v  16.5919 -49.6258 -0.7541
v  16.5919 -49.6258 0.7541
v  -16.5919 -49.6258 0.7541
v  -16.5919 49.6258 0.7541
v  16.5919 49.6258 0.7541
v  16.5919 49.6258 -0.7541
v  -16.5919 49.6258 -0.7541
v  16.5919 -47.1945 0.7541
v  -16.5919 -47.1945 0.7541
v  52.7336 -49.6258 0.7541
v  52.7336 -49.6258 -0.7541
v  52.7336 -47.1945 -0.7541
v  52.7336 -47.1945 0.7541
v  -16.5919 -47.1945 -0.7541
v  16.5919 -47.1945 -0.7541
v  -52.7336 -49.6258 -0.7541
v  -52.7336 -49.6258 0.7541
v  -52.7336 -47.1945 0.7541
v  -52.7336 -47.1945 -0.7541
v  18.5638 -49.6258 -0.7541
v  50.1709 -49.6258 -0.7541
v  50.1709 -49.6258 0.7541
v  18.5638 -49.6258 0.7541
v  -18.5638 -49.6258 0.7541
v  -50.1709 -49.6258 0.7541
v  -50.1709 -49.6258 -0.7541
v  -18.5638 -49.6258 -0.7541
v  18.5638 49.6258 0.7541
v  50.1709 49.6258 0.7541
v  50.1709 49.6258 -0.7541
v  18.5638 49.6258 -0.7541
v  -18.5638 49.6258 -0.7541
v  -50.1709 49.6258 -0.7541
v  -50.1709 49.6258 0.7541
v  -18.5638 49.6258 0.7541
v  50.1709 -47.1945 0.7541
v  18.5638 -47.1945 0.7541
v  -50.1709 47.1946 0.7541
v  -18.5638 47.1946 0.7541
v  -50.1709 -47.1945 -0.7541
v  -18.5638 -47.1945 -0.7541
v  50.1709 47.1945 -0.7541
v  18.5638 47.1946 -0.7541
v  52.7336 1.0000 -0.7541
v  52.7336 47.1945 -0.7541
v  52.7336 47.1945 0.7541
v  52.7336 1.0000 0.7541
v  -52.7336 1.0000 0.7541
v  -52.7336 47.1946 0.7541
v  -52.7336 47.1945 -0.7541
v  -52.7336 1.0000 -0.7541
v  50.1709 47.1945 0.7541
v  50.1709 1.0000 0.7541
v  -52.7336 -1.0000 0.7541
v  -50.1709 -47.1945 0.7541
v  -50.1709 -1.0000 0.7541
v  -50.1709 47.1945 -0.7541
v  -50.1709 1.0000 -0.7541
v  52.7336 -1.0000 -0.7541
v  50.1709 -47.1945 -0.7541
v  50.1709 -1.0000 -0.7541
v  16.5919 -1.0000 0.7541
v  16.5919 0.0000 0.7541
v  -16.5919 0.0000 0.7541
v  -16.5919 -1.0000 0.7541
v  52.7336 0.0000 -0.7541
v  52.7336 0.0000 0.7541
v  52.7336 -1.0000 0.7541
v  -16.5919 -1.0000 -0.7541
v  -16.5919 0.0000 -0.7541
v  16.5919 0.0000 -0.7541
v  16.5919 -1.0000 -0.7541
v  -52.7336 0.0000 0.7541
v  -52.7336 0.0000 -0.7541
v  -52.7336 -1.0000 -0.7541
v  50.1709 0.0000 0.7541
v  50.1709 -1.0000 0.7541
v  -50.1709 0.0000 0.7541
v  -50.1709 1.0000 0.7541
v  -50.1709 0.0000 -0.7541
v  -50.1709 -1.0000 -0.7541
v  50.1709 0.0000 -0.7541
v  50.1709 1.0000 -0.7541
v  16.5919 1.0000 0.7541
v  -16.5919 1.0000 0.7541
v  -16.5919 1.0000 -0.7541
v  16.5919 1.0000 -0.7541
v  17.5779 -49.6258 -0.7541
v  17.5779 -49.6258 0.7541
v  -17.5779 -49.6258 0.7541
v  -17.5779 -49.6258 -0.7541
v  17.5779 49.6258 0.7541
v  17.5779 49.6258 -0.7541
v  -17.5779 49.6258 -0.7541
v  -17.5779 49.6258 0.7541
v  17.5779 -47.1945 0.7541
v  -17.5779 47.1946 0.7541
v  -16.5919 47.1946 0.7541
v  -17.5779 -47.1945 -0.7541
v  17.5779 47.1946 -0.7541
v  16.5919 47.1946 -0.7541
v  17.5779 1.0000 0.7541
v  17.5779 47.1945 0.7541
v  16.5919 47.1945 0.7541
v  -17.5779 -1.0000 0.7541
v  -17.5779 -47.1945 0.7541
v  -17.5779 1.0000 -0.7541
v  -17.5779 47.1945 -0.7541
v  -16.5919 47.1945 -0.7541
v  17.5779 -1.0000 -0.7541
v  17.5779 -47.1945 -0.7541
v  18.5638 1.0000 0.7541
v  17.5779 0.0000 0.7541
v  18.5638 0.0000 0.7541
v  -17.5779 1.0000 0.7541
v  -17.5779 0.0000 0.7541
v  -18.5638 1.0000 -0.7541
v  -17.5779 0.0000 -0.7541
v  -18.5638 0.0000 -0.7541
v  17.5779 1.0000 -0.7541
v  17.5779 0.0000 -0.7541
v  17.5779 -1.0000 0.7541
v  18.5638 -1.0000 0.7541
v  -17.5779 -1.0000 -0.7541
v  -18.5638 -1.0000 -0.7541
v  18.5638 47.1945 0.7541
v  -18.5638 -1.0000 0.7541
v  -18.5638 -47.1945 0.7541
v  -18.5638 47.1945 -0.7541
v  18.5638 -1.0000 -0.7541
v  18.5638 -47.1945 -0.7541
v  -18.5638 1.0000 0.7541
v  -18.5638 0.0000 0.7541
v  18.5638 1.0000 -0.7541
v  18.5638 0.0000 -0.7541
v  52.7336 49.6258 -0.7541
v  52.7336 49.6258 0.7541
v  -52.7336 49.6258 0.7541
v  -52.7336 49.6258 -0.7541
# 140 vertices

vn 0.0000 -0.7071 -0.7071
vn 0.0000 -0.7071 0.7071
vn 0.0000 0.7071 0.7071
vn 0.0000 0.7071 -0.7071
vn -0.3015 0.3015 0.9045
vn 0.3015 0.3015 0.9045
vn 0.5774 -0.5774 0.5774
vn 0.5774 -0.5774 -0.5774
vn 0.7071 0.0000 -0.7071
vn 0.7071 0.0000 0.7071
vn 0.3015 0.3015 -0.9045
vn -0.3015 0.3015 -0.9045
vn -0.5774 -0.5774 -0.5774
vn -0.5774 -0.5774 0.5774
vn -0.7071 0.0000 0.7071
vn -0.7071 0.0000 -0.7071
vn 0.3015 -0.3015 0.9045
vn -0.3015 -0.3015 0.9045
vn -0.3015 -0.3015 -0.9045
vn 0.3015 -0.3015 -0.9045
vn 0.0000 0.0000 1.0000
vn 0.0000 0.0000 -1.0000
vn 0.5774 0.5774 -0.5774
vn 0.5774 0.5774 0.5774
vn -0.5774 0.5774 0.5774
vn -0.5774 0.5774 -0.5774
# 26 vertex normals

vt 0.1790 0.9861 0.0000
vt 0.3425 0.9861 0.0000
vt 0.3425 0.9990 0.0000
vt 0.1790 0.9990 0.0000
vt 0.1829 0.0010 0.0000
vt 0.3463 0.0010 0.0000
vt 0.3463 0.0139 0.0000
vt 0.1829 0.0139 0.0000
vt 0.1790 0.5013 0.0000
vt 0.3425 0.5013 0.0000
vt 0.3425 0.5131 0.0000
vt 0.1790 0.5131 0.0000
vt 0.5398 0.5128 0.0000
vt 0.5526 0.5128 0.0000
vt 0.5526 0.5246 0.0000
vt 0.5398 0.5246 0.0000
vt 0.1790 0.0164 0.0000
vt 0.3425 0.0164 0.0000
vt 0.3425 0.0282 0.0000
vt 0.1790 0.0282 0.0000
vt 0.5244 0.5128 0.0000
vt 0.5372 0.5128 0.0000
vt 0.5372 0.5246 0.0000
vt 0.5244 0.5246 0.0000
vt 0.3522 0.9861 0.0000
vt 0.5078 0.9861 0.0000
vt 0.5078 0.9990 0.0000
vt 0.3522 0.9990 0.0000
vt 0.1693 0.9990 0.0000
vt 0.0136 0.9990 0.0000
vt 0.0136 0.9861 0.0000
vt 0.1693 0.9861 0.0000
vt 0.3560 0.0010 0.0000
vt 0.5117 0.0010 0.0000
vt 0.5117 0.0139 0.0000
vt 0.3560 0.0139 0.0000
vt 0.1731 0.0139 0.0000
vt 0.0175 0.0139 0.0000
vt 0.0175 0.0010 0.0000
vt 0.1731 0.0010 0.0000
vt 0.3522 0.5013 0.0000
vt 0.5078 0.5013 0.0000
vt 0.5078 0.5131 0.0000
vt 0.3522 0.5131 0.0000
vt 0.1693 0.9833 0.0000
vt 0.0136 0.9833 0.0000
vt 0.0136 0.9714 0.0000
vt 0.1693 0.9714 0.0000
vt 0.3522 0.0164 0.0000
vt 0.5078 0.0164 0.0000
vt 0.5078 0.0282 0.0000
vt 0.3522 0.0282 0.0000
vt 0.1693 0.4984 0.0000
vt 0.0136 0.4984 0.0000
vt 0.0136 0.4866 0.0000
vt 0.1693 0.4866 0.0000
vt 0.5526 0.7587 0.0000
vt 0.5526 0.9830 0.0000
vt 0.5398 0.9830 0.0000
vt 0.5398 0.7587 0.0000
vt 0.5372 0.7587 0.0000
vt 0.5372 0.9830 0.0000
vt 0.5244 0.9830 0.0000
vt 0.5244 0.7587 0.0000
vt 0.5205 0.7471 0.0000
vt 0.5205 0.9714 0.0000
vt 0.5078 0.9714 0.0000
vt 0.5078 0.7471 0.0000
vt 0.0010 0.7374 0.0000
vt 0.0010 0.5131 0.0000
vt 0.0136 0.5131 0.0000
vt 0.0136 0.7374 0.0000
vt 0.5205 0.2622 0.0000
vt 0.5205 0.4866 0.0000
vt 0.5078 0.4866 0.0000
vt 0.5078 0.2622 0.0000
vt 0.0010 0.2525 0.0000
vt 0.0010 0.0282 0.0000
vt 0.0136 0.0282 0.0000
vt 0.0136 0.2525 0.0000
vt 0.3425 0.7374 0.0000
vt 0.3425 0.7423 0.0000
vt 0.1790 0.7423 0.0000
vt 0.1790 0.7374 0.0000
vt 0.5526 0.7490 0.0000
vt 0.5526 0.7538 0.0000
vt 0.5398 0.7538 0.0000
vt 0.5398 0.7490 0.0000
vt 0.3425 0.2525 0.0000
vt 0.3425 0.2574 0.0000
vt 0.1790 0.2574 0.0000
vt 0.1790 0.2525 0.0000
vt 0.5372 0.7490 0.0000
vt 0.5372 0.7538 0.0000
vt 0.5244 0.7538 0.0000
vt 0.5244 0.7490 0.0000
vt 0.5205 0.7374 0.0000
vt 0.5205 0.7423 0.0000
vt 0.5078 0.7423 0.0000
vt 0.5078 0.7374 0.0000
vt 0.0010 0.7471 0.0000
vt 0.0010 0.7423 0.0000
vt 0.0136 0.7423 0.0000
vt 0.0136 0.7471 0.0000
vt 0.5205 0.2525 0.0000
vt 0.5205 0.2574 0.0000
vt 0.5078 0.2574 0.0000
vt 0.5078 0.2525 0.0000
vt 0.0010 0.2622 0.0000
vt 0.0010 0.2574 0.0000
vt 0.0136 0.2574 0.0000
vt 0.0136 0.2622 0.0000
vt 0.3425 0.7471 0.0000
vt 0.1790 0.7471 0.0000
vt 0.3425 0.2622 0.0000
vt 0.1790 0.2622 0.0000
vt 0.3473 0.9861 0.0000
vt 0.3473 0.9990 0.0000
vt 0.1742 0.9990 0.0000
vt 0.1742 0.9861 0.0000
vt 0.3512 0.0010 0.0000
vt 0.3512 0.0139 0.0000
vt 0.1780 0.0139 0.0000
vt 0.1780 0.0010 0.0000
vt 0.3473 0.5013 0.0000
vt 0.3473 0.5131 0.0000
vt 0.1790 0.9833 0.0000
vt 0.1742 0.9833 0.0000
vt 0.1742 0.9714 0.0000
vt 0.1790 0.9714 0.0000
vt 0.3473 0.0164 0.0000
vt 0.3473 0.0282 0.0000
vt 0.1790 0.4984 0.0000
vt 0.1742 0.4984 0.0000
vt 0.1742 0.4866 0.0000
vt 0.1790 0.4866 0.0000
vt 0.3473 0.7471 0.0000
vt 0.3473 0.9714 0.0000
vt 0.3425 0.9714 0.0000
vt 0.1742 0.7374 0.0000
vt 0.1742 0.5131 0.0000
vt 0.3473 0.2622 0.0000
vt 0.3473 0.4866 0.0000
vt 0.3425 0.4866 0.0000
vt 0.1742 0.2525 0.0000
vt 0.1742 0.0282 0.0000
vt 0.3522 0.7471 0.0000
vt 0.3473 0.7423 0.0000
vt 0.3522 0.7423 0.0000
vt 0.1742 0.7471 0.0000
vt 0.1742 0.7423 0.0000
vt 0.3522 0.2622 0.0000
vt 0.3473 0.2574 0.0000
vt 0.3522 0.2574 0.0000
vt 0.1742 0.2622 0.0000
vt 0.1742 0.2574 0.0000
vt 0.3473 0.7374 0.0000
vt 0.3522 0.7374 0.0000
vt 0.3473 0.2525 0.0000
vt 0.3522 0.2525 0.0000
vt 0.3522 0.9714 0.0000
vt 0.1693 0.7374 0.0000
vt 0.1693 0.5131 0.0000
vt 0.3522 0.4866 0.0000
vt 0.1693 0.2525 0.0000
vt 0.1693 0.0282 0.0000
vt 0.1693 0.7471 0.0000
vt 0.1693 0.7423 0.0000
vt 0.1693 0.2622 0.0000
vt 0.1693 0.2574 0.0000
vt 0.0010 0.9714 0.0000
vt 0.0010 0.4866 0.0000
vt 0.3425 0.9833 0.0000
vt 0.5526 0.9948 0.0000
vt 0.5398 0.9948 0.0000
vt 0.3425 0.4984 0.0000
vt 0.5372 0.9948 0.0000
vt 0.5244 0.9948 0.0000
vt 0.5205 0.9833 0.0000
vt 0.5078 0.9833 0.0000
vt 0.5205 0.4984 0.0000
vt 0.5078 0.4984 0.0000
vt 0.3473 0.9833 0.0000
vt 0.3473 0.4984 0.0000
vt 0.3522 0.9833 0.0000
vt 0.3522 0.4984 0.0000
vt 0.5205 0.5131 0.0000
vt 0.5205 0.0282 0.0000
vt 0.0010 0.5013 0.0000
vt 0.0136 0.5013 0.0000
vt 0.0010 0.0164 0.0000
vt 0.0136 0.0164 0.0000
vt 0.1742 0.5013 0.0000
vt 0.1742 0.0164 0.0000
vt 0.1693 0.5013 0.0000
vt 0.1693 0.0164 0.0000
vt 0.5205 0.9861 0.0000
vt 0.5205 0.9990 0.0000
vt 0.5243 0.0010 0.0000
vt 0.5243 0.0139 0.0000
vt 0.5205 0.5013 0.0000
vt 0.0010 0.4984 0.0000
vt 0.0010 0.9990 0.0000
vt 0.0010 0.9861 0.0000
vt 0.0048 0.0139 0.0000
vt 0.0048 0.0010 0.0000
vt 0.0010 0.9833 0.0000
vt 0.5205 0.0164 0.0000
vt 0.5282 0.1241 0.0000
vt 0.6839 0.1241 0.0000
vt 0.6839 0.1370 0.0000
vt 0.5282 0.1370 0.0000
vt 0.6839 0.0600 0.0000
vt 0.5282 0.0600 0.0000
vt 0.5282 0.0472 0.0000
vt 0.6839 0.0472 0.0000
vt 0.8571 0.0139 0.0000
vt 0.6937 0.0139 0.0000
vt 0.6937 0.0010 0.0000
vt 0.8571 0.0010 0.0000
vt 0.6917 0.0292 0.0000
vt 0.5282 0.0292 0.0000
vt 0.5282 0.0164 0.0000
vt 0.6917 0.0164 0.0000
vt 0.6839 0.1216 0.0000
vt 0.5282 0.1216 0.0000
vt 0.5282 0.1088 0.0000
vt 0.6839 0.1088 0.0000
vt 0.5282 0.0934 0.0000
vt 0.6839 0.0934 0.0000
vt 0.6839 0.1062 0.0000
vt 0.5282 0.1062 0.0000
vt 0.5282 0.0010 0.0000
vt 0.6917 0.0010 0.0000
vt 0.6917 0.0139 0.0000
vt 0.5282 0.0139 0.0000
vt 0.5282 0.0626 0.0000
vt 0.6839 0.0626 0.0000
vt 0.6839 0.0754 0.0000
vt 0.5282 0.0754 0.0000
vt 0.6839 0.0908 0.0000
vt 0.5282 0.0908 0.0000
vt 0.5282 0.0780 0.0000
vt 0.6839 0.0780 0.0000
vt 0.6321 0.7602 0.0000
vt 0.6321 0.5359 0.0000
vt 0.6450 0.5359 0.0000
vt 0.6450 0.7602 0.0000
vt 0.5988 0.5359 0.0000
vt 0.5988 0.7602 0.0000
vt 0.5859 0.7602 0.0000
vt 0.5859 0.5359 0.0000
vt 0.5859 0.9950 0.0000
vt 0.5859 0.7706 0.0000
vt 0.5988 0.7706 0.0000
vt 0.5988 0.9950 0.0000
vt 0.6142 0.5359 0.0000
vt 0.6142 0.7602 0.0000
vt 0.6013 0.7602 0.0000
vt 0.6013 0.5359 0.0000
vt 0.5834 0.7706 0.0000
vt 0.5834 0.9950 0.0000
vt 0.5705 0.9950 0.0000
vt 0.5705 0.7706 0.0000
vt 0.6013 0.9950 0.0000
vt 0.6013 0.7706 0.0000
vt 0.6142 0.7706 0.0000
vt 0.6142 0.9950 0.0000
vt 0.5551 0.9950 0.0000
vt 0.5551 0.7706 0.0000
vt 0.5680 0.7706 0.0000
vt 0.5680 0.9950 0.0000
vt 0.6296 0.5359 0.0000
vt 0.6296 0.7602 0.0000
vt 0.6167 0.7602 0.0000
vt 0.6167 0.5359 0.0000
vt 0.6296 0.7706 0.0000
vt 0.6296 0.9950 0.0000
vt 0.6167 0.9950 0.0000
vt 0.6167 0.7706 0.0000
vt 0.5705 0.7602 0.0000
vt 0.5705 0.5359 0.0000
vt 0.5834 0.5359 0.0000
vt 0.5834 0.7602 0.0000
vt 0.6321 0.9950 0.0000
vt 0.6321 0.7706 0.0000
vt 0.6450 0.7706 0.0000
vt 0.6450 0.9950 0.0000
vt 0.5680 0.5359 0.0000
vt 0.5680 0.7602 0.0000
vt 0.5551 0.7602 0.0000
vt 0.5551 0.5359 0.0000
vt 0.5282 0.1549 0.0000
vt 0.6839 0.1549 0.0000
vt 0.6839 0.1678 0.0000
vt 0.5282 0.1678 0.0000
vt 0.5282 0.0318 0.0000
vt 0.6917 0.0318 0.0000
vt 0.6917 0.0446 0.0000
vt 0.5282 0.0446 0.0000
vt 0.6839 0.1524 0.0000
vt 0.5282 0.1524 0.0000
vt 0.5282 0.1395 0.0000
vt 0.6839 0.1395 0.0000
# 304 texture coords

o window_frame_low
g window_frame_low
s 1
f 1/1/1 2/2/1 3/3/2 4/4/2 
f 5/5/3 6/6/3 7/7/4 8/8/4 
s 2
f 4/9/2 3/10/2 9/11/5 10/12/6 
s 4
f 11/13/7 12/14/8 13/15/9 14/16/10 
s 2
f 2/17/1 1/18/1 15/19/11 16/20/12 
s 4
f 17/21/13 18/22/14 19/23/15 20/24/16 
s 1
f 21/25/1 22/26/1 23/27/2 24/28/2 
f 25/29/2 26/30/2 27/31/1 28/32/1 
f 29/33/3 30/34/3 31/35/4 32/36/4 
f 33/37/4 34/38/4 35/39/3 36/40/3 
s 2
f 24/41/2 23/42/2 37/43/5 38/44/6 
f 36/45/3 35/46/3 39/47/17 40/48/18 
f 28/49/1 27/50/1 41/51/11 42/52/12 
f 32/53/4 31/54/4 43/55/19 44/56/20 
s 4
f 45/57/9 46/58/9 47/59/10 48/60/10 
f 49/61/15 50/62/15 51/63/16 52/64/16 
s 2
f 48/65/10 47/66/10 53/67/18 54/68/5 
f 55/69/15 19/70/15 56/71/6 57/72/17 
f 52/73/16 51/74/16 58/75/20 59/76/11 
f 60/77/9 13/78/9 61/79/12 62/80/19 
f 63/81/18 64/82/21 65/83/21 66/84/17 
s 4
f 60/85/9 67/86/9 68/87/10 69/88/10 
s 2
f 70/89/20 71/90/22 72/91/22 73/92/19 
s 4
f 55/93/15 74/94/15 75/95/16 76/96/16 
s 2
f 69/97/10 68/98/10 77/99/21 78/100/18 
f 49/101/15 74/102/15 79/103/21 80/104/6 
f 76/105/16 75/106/16 81/107/22 82/108/20 
f 45/109/9 67/110/9 83/111/22 84/112/12 
f 64/82/21 85/113/5 86/114/6 65/83/21 
s 4
f 67/86/9 45/57/9 48/60/10 68/87/10 
s 2
f 71/90/22 87/115/11 88/116/12 72/91/22 
s 4
f 74/94/15 49/61/15 52/64/16 75/95/16 
s 2
f 68/98/10 48/65/10 54/68/5 77/99/21 
f 74/102/15 55/69/15 57/72/17 79/103/21 
f 75/106/16 52/73/16 59/76/11 81/107/22 
f 67/110/9 60/77/9 62/80/19 83/111/22 
s 1
f 2/2/1 89/117/1 90/118/2 3/3/2 
f 4/4/2 91/119/2 92/120/1 1/1/1 
f 6/6/3 93/121/3 94/122/4 7/7/4 
f 8/8/4 95/123/4 96/124/3 5/5/3 
s 2
f 3/10/2 90/125/2 97/126/21 9/11/5 
f 5/127/3 96/128/3 98/129/21 99/130/17 
f 1/18/1 92/131/1 100/132/22 15/19/11 
f 7/133/4 94/134/4 101/135/22 102/136/19 
f 85/113/5 103/137/21 104/138/21 105/139/18 
f 66/84/17 106/140/21 107/141/21 10/12/6 
f 87/115/11 108/142/22 109/143/22 110/144/20 
f 73/92/19 111/145/22 112/146/22 16/20/12 
f 113/147/6 103/137/21 114/148/21 115/149/21 
f 86/114/6 116/150/21 117/151/21 65/83/21 
f 118/152/12 108/142/22 119/153/22 120/154/22 
f 88/116/12 121/155/22 122/156/22 72/91/22 
f 115/149/21 114/148/21 123/157/21 124/158/17 
f 65/83/21 117/151/21 106/140/21 66/84/17 
f 120/154/22 119/153/22 125/159/22 126/160/19 
f 72/91/22 122/156/22 111/145/22 73/92/19 
s 1
f 89/117/1 21/25/1 24/28/2 90/118/2 
f 91/119/2 25/29/2 28/32/1 92/120/1 
f 93/121/3 29/33/3 32/36/4 94/122/4 
f 95/123/4 33/37/4 36/40/3 96/124/3 
s 2
f 90/125/2 24/41/2 38/44/6 97/126/21 
f 96/128/3 36/45/3 40/48/18 98/129/21 
f 92/131/1 28/49/1 42/52/12 100/132/22 
f 94/134/4 32/53/4 44/56/20 101/135/22 
f 103/137/21 113/147/6 127/161/17 104/138/21 
f 106/140/21 128/162/18 129/163/5 107/141/21 
f 108/142/22 118/152/12 130/164/19 109/143/22 
f 111/145/22 131/165/20 132/166/11 112/146/22 
f 103/137/21 85/113/5 64/82/21 114/148/21 
f 116/150/21 133/167/5 134/168/21 117/151/21 
f 108/142/22 87/115/11 71/90/22 119/153/22 
f 121/155/22 135/169/11 136/170/22 122/156/22 
f 114/148/21 64/82/21 63/81/18 123/157/21 
f 117/151/21 134/168/21 128/162/18 106/140/21 
f 119/153/22 71/90/22 70/89/20 125/159/22 
f 122/156/22 136/170/22 131/165/20 111/145/22 
f 50/171/15 49/101/15 80/104/6 39/47/17 
f 46/172/9 45/109/9 84/112/12 43/55/19 
f 105/139/18 6/173/3 5/127/3 99/130/17 
s 4
f 46/58/9 137/174/23 138/175/24 47/59/10 
s 2
f 110/144/20 8/176/4 7/133/4 102/136/19 
s 4
f 50/62/15 139/177/25 140/178/26 51/63/16 
s 2
f 47/66/10 138/179/24 30/180/3 53/67/18 
f 51/74/16 140/181/26 34/182/4 58/75/20 
f 98/129/21 116/150/21 86/114/6 99/130/17 
f 101/135/22 121/155/22 88/116/12 102/136/19 
f 104/138/21 93/183/3 6/173/3 105/139/18 
f 109/143/22 95/184/4 8/176/4 110/144/20 
f 40/48/18 133/167/5 116/150/21 98/129/21 
f 44/56/20 135/169/11 121/155/22 101/135/22 
f 127/161/17 29/185/3 93/183/3 104/138/21 
f 130/164/19 33/186/4 95/184/4 109/143/22 
s 4
f 13/15/9 60/85/9 69/88/10 14/16/10 
f 19/23/15 55/93/15 76/96/16 20/24/16 
s 2
f 14/187/10 69/97/10 78/100/18 37/43/5 
f 20/188/16 76/105/16 82/108/20 41/51/11 
f 19/70/15 18/189/14 26/190/2 56/71/6 
f 13/78/9 12/191/8 22/192/1 61/79/12 
f 97/126/21 123/157/21 63/81/18 9/11/5 
f 100/132/22 125/159/22 70/89/20 15/19/11 
f 107/141/21 91/193/2 4/9/2 10/12/6 
f 112/146/22 89/194/1 2/17/1 16/20/12 
f 38/44/6 124/158/17 123/157/21 97/126/21 
f 42/52/12 126/160/19 125/159/22 100/132/22 
f 129/163/5 25/195/2 91/193/2 107/141/21 
f 132/166/11 21/196/1 89/194/1 112/146/22 
s 1
f 22/26/1 12/197/8 11/198/7 23/27/2 
f 30/34/3 138/199/24 137/200/23 31/35/4 
s 2
f 23/42/2 11/201/7 14/187/10 37/43/5 
f 31/54/4 137/202/23 46/172/9 43/55/19 
f 77/99/21 115/149/21 124/158/17 78/100/18 
f 83/111/22 136/170/22 135/169/11 84/112/12 
f 54/68/5 113/147/6 115/149/21 77/99/21 
f 62/80/19 131/165/20 136/170/22 83/111/22 
f 30/180/3 29/185/3 127/161/17 53/67/18 
f 22/192/1 21/196/1 132/166/11 61/79/12 
s 1
f 26/30/2 18/203/14 17/204/13 27/31/1 
f 34/38/4 140/205/26 139/206/25 35/39/3 
s 2
f 35/46/3 139/207/25 50/171/15 39/47/17 
f 27/50/1 17/208/13 20/188/16 41/51/11 
f 79/103/21 134/168/21 133/167/5 80/104/6 
f 81/107/22 120/154/22 126/160/19 82/108/20 
f 57/72/17 128/162/18 134/168/21 79/103/21 
f 59/76/11 118/152/12 120/154/22 81/107/22 
f 34/182/4 33/186/4 130/164/19 58/75/20 
f 26/190/2 25/195/2 129/163/5 56/71/6 
s 1
f 113/209/6 54/210/5 84/211/12 135/212/11 
f 61/213/12 132/214/11 38/215/6 37/216/5 
f 16/217/12 15/218/11 10/219/6 9/220/5 
f 88/221/12 87/222/11 86/223/6 85/224/5 
f 118/225/12 59/226/11 80/227/6 133/228/5 
f 56/229/6 129/230/5 42/231/12 41/232/11 
f 110/233/20 102/234/19 105/235/18 99/236/17 
f 58/237/20 130/238/19 40/239/18 39/240/17 
f 53/241/18 127/242/17 44/243/20 43/244/19 
s 4
f 43/245/19 84/246/12 54/247/5 53/248/18 
f 37/249/5 78/250/18 62/251/19 61/252/12 
f 102/253/19 88/254/12 85/255/5 105/256/18 
f 9/257/5 63/258/18 73/259/19 16/260/12 
f 133/261/5 40/262/18 130/263/19 118/264/12 
f 126/265/19 42/266/12 129/267/5 128/268/18 
f 39/269/17 80/270/6 59/271/11 58/272/20 
f 41/273/11 82/274/20 57/275/17 56/276/6 
f 15/277/11 70/278/20 66/279/17 10/280/6 
f 99/281/17 86/282/6 87/283/11 110/284/20 
f 124/285/17 38/286/6 132/287/11 131/288/20 
f 135/289/11 44/290/20 127/291/17 113/292/6 
s 1
f 131/293/20 62/294/19 78/295/18 124/296/17 
f 70/297/20 73/298/19 63/299/18 66/300/17 
f 128/301/18 57/302/17 82/303/20 126/304/19 
# 150 polygons

