# 3ds Max Wavefront OBJ Exporter v0.97b - (c)2007 guruware
# File Created: 29.05.2019 21:06:53

#
# object paiting_low
#

v  94.4682 25.3024 51.4264
v  94.4682 25.3024 32.1350
v  95.6493 25.3024 32.1350
v  95.6493 25.3024 51.4264
v  95.6493 56.7985 51.4264
v  95.6493 56.7985 32.1350
v  94.4682 56.7985 32.1350
v  94.4682 56.7985 51.4264
v  95.6493 26.4835 52.6073
v  95.6493 55.6173 52.6073
v  94.4682 55.6173 52.6073
v  94.4682 26.4835 52.6073
v  95.6493 26.4835 32.1350
v  95.6493 55.6173 32.1350
v  95.6493 55.6173 51.4264
v  95.6493 26.4835 51.4264
v  94.4682 26.4835 30.9538
v  94.4682 55.6173 30.9538
v  95.6493 55.6173 30.9538
v  95.6493 26.4835 30.9538
v  94.8619 26.4835 51.4264
v  94.8619 55.6173 51.4264
v  94.8619 55.6173 32.1350
v  94.8619 26.4835 32.1350
v  94.4682 25.3024 30.9538
v  95.6493 25.3024 30.9538
v  95.6493 25.3024 52.6073
v  94.4682 25.3024 52.6073
v  95.6493 56.7985 30.9538
v  94.4682 56.7985 30.9538
v  94.4682 56.7985 52.6073
v  95.6493 56.7985 52.6073
v  94.4682 55.6173 51.4264
v  94.4682 26.4835 51.4264
v  94.4682 26.4835 32.1350
v  94.4682 55.6173 32.1350
# 36 vertices

vn -0.7071 -0.7071 -0.0000
vn 0.7071 -0.7071 -0.0000
vn 0.7071 0.7071 -0.0000
vn -0.7071 0.7071 -0.0000
vn 0.7071 0.0000 0.7071
vn -0.7071 0.0000 0.7071
vn 1.0000 0.0000 -0.0000
vn -0.7071 0.0000 -0.7071
vn 0.7071 0.0000 -0.7071
vn -0.5774 0.5774 -0.5774
vn -0.5774 -0.5774 -0.5774
vn -0.5774 -0.5774 0.5774
vn -0.5774 0.5774 0.5774
vn 0.5774 -0.5774 -0.5774
vn 0.5774 -0.5774 0.5774
vn 0.5774 0.5774 -0.5774
vn 0.5774 0.5774 0.5774
vn -0.9045 -0.3015 -0.3015
vn -0.9045 0.3015 -0.3015
vn -0.9045 0.3015 0.3015
vn -0.9045 -0.3015 0.3015
# 21 vertex normals

vt 0.7991 0.3372 0.0000
vt 0.7991 0.0199 0.0000
vt 0.8185 0.0199 0.0000
vt 0.8185 0.3372 0.0000
vt 0.7959 0.0199 0.0000
vt 0.7959 0.3372 0.0000
vt 0.7765 0.3372 0.0000
vt 0.7765 0.0199 0.0000
vt 0.3778 0.0199 0.0000
vt 0.3778 0.4991 0.0000
vt 0.3583 0.4991 0.0000
vt 0.3583 0.0199 0.0000
vt 0.3372 0.0199 0.0000
vt 0.3372 0.4991 0.0000
vt 0.0199 0.4991 0.0000
vt 0.0199 0.0199 0.0000
vt 0.4004 0.0199 0.0000
vt 0.4004 0.4991 0.0000
vt 0.3809 0.4991 0.0000
vt 0.3809 0.0199 0.0000
vt 0.3178 0.5203 0.0000
vt 0.3178 0.9995 0.0000
vt 0.0005 0.9995 0.0000
vt 0.0005 0.5203 0.0000
vt 0.7991 0.0005 0.0000
vt 0.8185 0.0005 0.0000
vt 0.8185 0.3566 0.0000
vt 0.7991 0.3566 0.0000
vt 0.7959 0.3566 0.0000
vt 0.7765 0.3566 0.0000
vt 0.7765 0.0005 0.0000
vt 0.7959 0.0005 0.0000
vt 0.3566 0.0199 0.0000
vt 0.3566 0.4991 0.0000
vt 0.0005 0.4991 0.0000
vt 0.0005 0.0199 0.0000
vt 0.7597 0.0199 0.0000
vt 0.7597 0.4991 0.0000
vt 0.7403 0.4991 0.0000
vt 0.7403 0.0199 0.0000
vt 0.4036 0.4991 0.0000
vt 0.4036 0.0199 0.0000
vt 0.4230 0.0199 0.0000
vt 0.4230 0.4991 0.0000
vt 0.3778 0.5185 0.0000
vt 0.3583 0.5185 0.0000
vt 0.3583 0.0005 0.0000
vt 0.3778 0.0005 0.0000
vt 0.3372 0.5185 0.0000
vt 0.0199 0.5185 0.0000
vt 0.0199 0.0005 0.0000
vt 0.3372 0.0005 0.0000
vt 0.4004 0.5185 0.0000
vt 0.3809 0.5185 0.0000
vt 0.3809 0.0005 0.0000
vt 0.4004 0.0005 0.0000
vt 0.7403 0.5185 0.0000
vt 0.4230 0.5185 0.0000
vt 0.4230 0.0005 0.0000
vt 0.7403 0.0005 0.0000
vt 0.3566 0.5185 0.0000
vt 0.3566 0.0005 0.0000
vt 0.0005 0.0005 0.0000
vt 0.0005 0.5185 0.0000
vt 0.7597 0.5185 0.0000
vt 0.7597 0.0005 0.0000
vt 0.4036 0.0005 0.0000
vt 0.4036 0.5185 0.0000
vt 0.7754 0.0005 0.0000
vt 0.7754 0.4797 0.0000
vt 0.7689 0.4797 0.0000
vt 0.7689 0.0005 0.0000
vt 0.3207 0.8451 0.0000
vt 0.3207 0.5279 0.0000
vt 0.3272 0.5279 0.0000
vt 0.3272 0.8451 0.0000
vt 0.7614 0.4797 0.0000
vt 0.7614 0.0005 0.0000
vt 0.7679 0.0005 0.0000
vt 0.7679 0.4797 0.0000
vt 0.3282 0.8451 0.0000
vt 0.3282 0.5279 0.0000
vt 0.3347 0.5279 0.0000
vt 0.3347 0.8451 0.0000
# 84 texture coords

o paiting_low
g paiting_low
s 2
f 1/1/1 2/2/1 3/3/2 4/4/2 
s 4
f 5/5/3 6/6/3 7/7/4 8/8/4 
s 8
f 9/9/5 10/10/5 11/11/6 12/12/6 
s 16
f 13/13/7 14/14/7 15/15/7 16/16/7 
s 32
f 17/17/8 18/18/8 19/19/9 20/20/9 
s 64
f 21/21/10 22/22/11 23/23/12 24/24/13 
s 2
f 2/2/1 25/25/11 26/26/14 3/3/2 
f 4/4/2 27/27/15 28/28/12 1/1/1 
s 4
f 6/6/3 29/29/16 30/30/10 7/7/4 
f 8/8/4 31/31/13 32/32/17 5/5/3 
s 16
f 20/33/9 19/34/9 14/14/7 13/13/7 
f 10/35/5 9/36/5 16/16/7 15/15/7 
s 64
f 12/37/6 11/38/6 33/39/18 34/40/19 
f 18/41/8 17/42/8 35/43/20 36/44/21 
s 8
f 10/10/5 32/45/17 31/46/13 11/11/6 
f 12/12/6 28/47/12 27/48/15 9/9/5 
s 16
f 14/14/7 6/49/3 5/50/3 15/15/7 
f 16/16/7 4/51/2 3/52/2 13/13/7 
s 32
f 18/18/8 30/53/10 29/54/16 19/19/9 
f 20/20/9 26/55/14 25/56/11 17/17/8 
s 64
f 33/39/18 8/57/4 7/58/4 36/44/21 
f 35/43/20 2/59/1 1/60/1 34/40/19 
s 16
f 19/34/9 29/61/16 6/49/3 14/14/7 
f 13/13/7 3/52/2 26/62/14 20/33/9 
f 9/36/5 27/63/15 4/51/2 16/16/7 
f 15/15/7 5/50/3 32/64/17 10/35/5 
s 64
f 11/38/6 31/65/13 8/57/4 33/39/18 
f 34/40/19 1/60/1 28/66/12 12/37/6 
f 17/42/8 25/67/11 2/59/1 35/43/20 
f 36/44/21 7/58/4 30/68/10 18/41/8 
s off
f 34/69/19 33/70/18 22/71/11 21/72/10 
f 33/73/18 36/74/21 23/75/12 22/76/11 
f 36/77/21 35/78/20 24/79/13 23/80/12 
f 35/81/20 34/82/19 21/83/10 24/84/13 
# 34 polygons

