# 3ds Max Wavefront OBJ Exporter v0.97b - (c)2007 guruware
# File Created: 23.05.2019 20:57:43

#
# object window_glass_low
#

v  -194.6492 0.0000 79.5869
v  -90.7556 0.0000 79.5869
v  -90.7556 96.9259 79.5869
v  -194.6492 96.9259 79.5869
v  -90.7556 0.0000 78.8798
v  -194.6492 0.0000 78.8798
v  -194.6492 96.9259 78.8798
v  -90.7556 96.9259 78.8798
# 8 vertices

vn -0.5774 -0.5774 0.5774
vn 0.5774 -0.5774 0.5774
vn 0.5774 0.5774 0.5774
vn -0.5774 0.5774 0.5774
vn 0.5774 -0.5774 -0.5774
vn -0.5774 -0.5774 -0.5774
vn -0.5774 0.5774 -0.5774
vn 0.5774 0.5774 -0.5774
# 8 vertex normals

vt 0.0010 0.5015 0.0000
vt 0.5260 0.5015 0.0000
vt 0.5260 0.9912 0.0000
vt 0.0010 0.9912 0.0000
vt 0.0010 0.0083 0.0000
vt 0.5260 0.0083 0.0000
vt 0.5260 0.4980 0.0000
vt 0.0010 0.4980 0.0000
vt 0.5421 0.0010 0.0000
vt 0.5421 0.4908 0.0000
vt 0.5377 0.4908 0.0000
vt 0.5377 0.0010 0.0000
vt 0.5296 0.0053 0.0000
vt 0.0046 0.0053 0.0000
vt 0.0046 0.0010 0.0000
vt 0.5296 0.0010 0.0000
vt 0.5305 0.5053 0.0000
vt 0.5305 0.0155 0.0000
vt 0.5348 0.0155 0.0000
vt 0.5348 0.5053 0.0000
vt 0.0010 0.9947 0.0000
vt 0.5260 0.9947 0.0000
vt 0.5260 0.9990 0.0000
vt 0.0010 0.9990 0.0000
# 24 texture coords

o window_glass_low
g window_glass_low
s 1
f 1/1/1 2/2/2 3/3/3 4/4/4 
f 5/5/5 6/6/6 7/7/7 8/8/8 
s 2
f 5/9/5 8/10/8 3/11/3 2/12/2 
s 4
f 8/13/8 7/14/7 4/15/4 3/16/3 
s 2
f 7/17/7 6/18/6 1/19/1 4/20/4 
s 4
f 6/21/6 5/22/5 2/23/2 1/24/1 
# 6 polygons

