# 3ds Max Wavefront OBJ Exporter v0.97b - (c)2007 guruware
# File Created: 30.05.2019 22:29:16

#
# object Plane001
#

v  106.2432 0.0394 -210.0581
v  893.6448 0.0394 -210.0581
v  893.6448 0.0394 -997.4595
v  106.2432 0.0394 -997.4595
v  893.6448 0.0000 -997.4595
v  893.6448 0.0000 -210.0581
v  106.2432 0.0000 -210.0581
v  106.2432 0.0000 -997.4595
# 8 vertices

vn -0.5774 0.5774 0.5774
vn 0.5774 0.5774 0.5774
vn 0.5774 0.5774 -0.5774
vn -0.5774 0.5774 -0.5774
vn 0.5774 -0.5774 -0.5774
vn 0.5774 -0.5774 0.5774
vn -0.5774 -0.5774 0.5774
vn -0.5774 -0.5774 -0.5774
# 8 vertex normals

vt 0.0000 0.0000 0.0000
vt 196.8504 0.0000 0.0000
vt 196.8504 196.8504 0.0000
vt 0.0000 196.8504 0.0000
# 4 texture coords

o Plane001
g Plane001
s 1
f 1/1/1 2/2/2 3/3/3 4/4/4 
f 5/3/5 6/2/6 7/1/7 8/4/8 
s 2
f 2/2/2 1/1/1 7/1/7 6/2/6 
s 4
f 3/3/3 2/2/2 6/2/6 5/3/5 
s 2
f 4/4/4 3/3/3 5/3/5 8/4/8 
s 4
f 1/1/1 4/4/4 8/4/8 7/1/7 
# 6 polygons

#
# object Plane002
#

v  108.0789 27.5591 -258.9579
v  108.0789 0.0000 -258.9579
v  108.0789 0.0000 -950.8870
v  108.0789 27.5591 -950.8870
v  849.2085 0.0000 -998.5839
v  849.2085 27.5591 -998.5839
v  155.8728 27.5591 -998.5839
v  155.8728 0.0000 -998.5839
v  897.0024 27.5591 -887.8949
v  897.0024 0.0000 -887.8949
v  897.0024 0.0000 -258.9579
v  897.0024 27.5591 -258.9579
v  108.0789 78.7402 -950.8870
v  108.0789 78.7402 -258.9579
v  218.8649 27.5591 -211.2610
v  218.8649 78.7402 -211.2610
v  849.2085 78.7402 -211.2610
v  849.2085 27.5591 -211.2610
v  849.2085 78.7402 -998.5839
v  155.8728 78.7402 -998.5839
v  108.0789 393.7008 -950.8870
v  108.0790 448.8188 -950.8870
v  108.0790 448.8188 -258.9579
v  108.0789 393.7008 -258.9579
v  218.8650 393.7008 -211.2610
v  218.8650 448.8189 -211.2610
v  849.2085 448.8190 -211.2610
v  849.2085 393.7009 -211.2610
v  849.2085 393.7009 -998.5839
v  849.2085 448.8190 -998.5839
v  155.8728 448.8188 -998.5839
v  155.8728 393.7008 -998.5839
v  897.0024 393.7009 -919.3909
v  897.0024 448.8190 -919.3909
v  897.0024 448.8190 -950.8870
v  897.0024 393.7009 -950.8870
v  108.0674 27.5591 -211.2495
v  108.0674 0.0000 -211.2495
v  108.0674 0.0000 -998.5953
v  108.0674 27.5591 -998.5953
v  897.0139 27.5591 -998.5953
v  897.0139 0.0000 -998.5953
v  897.0024 0.0000 -950.8870
v  897.0024 27.5591 -950.8870
v  897.0139 0.0000 -211.2495
v  897.0139 27.5591 -211.2495
v  108.0674 78.7402 -998.5953
v  108.0674 393.7008 -211.2495
v  108.0674 78.7402 -211.2495
v  897.0139 78.7402 -211.2495
v  897.0024 78.7402 -258.9579
v  897.0139 393.7009 -998.5953
v  897.0139 78.7402 -998.5953
v  897.0024 78.7402 -950.8870
v  108.0674 393.7008 -998.5953
v  108.0674 448.8188 -998.5953
v  108.0674 448.8188 -211.2495
v  897.0139 393.7009 -211.2495
v  897.0139 448.8190 -211.2495
v  897.0024 448.8190 -258.9579
v  897.0024 393.7009 -258.9579
v  897.0139 448.8190 -998.5953
v  849.2085 0.0000 -211.2610
v  155.8728 27.5591 -211.2610
v  155.8728 0.0000 -211.2610
v  155.8728 78.7402 -211.2610
v  155.8728 448.8188 -211.2610
v  155.8728 393.7008 -211.2610
v  218.8650 0.0000 -211.2610
v  187.3689 0.0000 -211.2610
v  187.3689 27.5591 -211.2610
v  187.3689 448.8189 -211.2610
v  187.3689 393.7008 -211.2610
v  187.3689 78.7401 -211.2610
v  897.0024 78.7402 -887.8949
v  897.0024 78.7402 -919.3909
v  897.0024 27.5591 -919.3909
v  897.0024 393.7009 -887.8949
v  897.0024 448.8190 -887.8949
v  897.0024 -0.0000 -919.3909
v  108.0396 0.0000 -950.8870
v  108.0396 0.0000 -258.9579
v  108.0396 27.5591 -258.9579
v  108.0396 27.5591 -950.8870
v  155.8728 27.5591 -998.6232
v  849.2085 27.5591 -998.6232
v  849.2085 0.0000 -998.6232
v  155.8728 0.0000 -998.6232
v  897.0417 0.0000 -258.9579
v  897.0417 0.0000 -887.8949
v  897.0417 27.5591 -887.8949
v  897.0417 27.5591 -258.9579
v  108.0396 78.7402 -258.9579
v  108.0396 78.7402 -950.8870
v  849.2085 78.7402 -211.2216
v  218.8649 78.7402 -211.2217
v  218.8649 27.5591 -211.2217
v  849.2085 27.5591 -211.2216
v  155.8728 78.7402 -998.6232
v  849.2085 78.7402 -998.6232
v  108.0396 448.8188 -258.9579
v  108.0396 448.8188 -950.8870
v  108.0396 393.7008 -950.8870
v  108.0396 393.7008 -258.9579
v  849.2085 448.8190 -211.2216
v  218.8650 448.8189 -211.2217
v  218.8650 393.7008 -211.2217
v  849.2085 393.7009 -211.2216
v  155.8728 448.8188 -998.6232
v  849.2085 448.8190 -998.6232
v  849.2085 393.7009 -998.6232
v  155.8728 393.7008 -998.6232
v  897.0417 448.8190 -950.8870
v  897.0417 448.8190 -919.3909
v  897.0417 393.7009 -919.3909
v  897.0417 393.7009 -950.8870
v  108.0396 0.0000 -211.2216
v  108.0396 27.5591 -211.2216
v  108.0396 27.5591 -998.6232
v  108.0396 0.0000 -998.6232
v  897.0417 0.0000 -950.8870
v  897.0417 0.0000 -998.6232
v  897.0417 27.5591 -998.6232
v  897.0417 27.5591 -950.8870
v  897.0417 27.5591 -211.2216
v  897.0417 0.0000 -211.2216
v  108.0396 78.7402 -998.6232
v  108.0396 78.7402 -211.2216
v  108.0396 393.7008 -211.2216
v  897.0417 78.7402 -258.9579
v  897.0417 78.7402 -211.2216
v  897.0417 78.7402 -950.8870
v  897.0417 78.7402 -998.6232
v  897.0417 393.7009 -998.6232
v  108.0396 448.8188 -998.6232
v  108.0396 393.7008 -998.6232
v  108.0396 448.8188 -211.2216
v  897.0417 448.8190 -258.9579
v  897.0417 448.8190 -211.2216
v  897.0417 393.7009 -211.2216
v  897.0417 393.7009 -258.9579
v  897.0417 448.8190 -998.6232
v  849.2085 0.0000 -211.2216
v  155.8728 27.5591 -211.2216
v  155.8728 0.0000 -211.2216
v  155.8728 78.7402 -211.2216
v  155.8728 448.8188 -211.2216
v  155.8728 393.7008 -211.2216
v  187.3689 0.0000 -211.2216
v  218.8650 0.0000 -211.2216
v  187.3689 27.5591 -211.2217
v  187.3689 448.8189 -211.2217
v  187.3689 393.7008 -211.2217
v  187.3689 78.7401 -211.2217
v  897.0417 78.7402 -919.3909
v  897.0417 78.7402 -887.8949
v  897.0417 27.5591 -919.3909
v  897.0417 448.8190 -887.8949
v  897.0417 393.7009 -887.8949
v  897.0417 -0.0000 -919.3909
# 160 vertices

vn 1.0000 -0.0000 0.0001
vn 0.7071 -0.7071 0.0001
vn 0.7071 -0.7071 -0.0001
vn 1.0000 -0.0000 -0.0001
vn 0.0001 -0.7071 0.7071
vn 0.0001 -0.0000 1.0000
vn -0.0001 0.0000 1.0000
vn -0.0001 -0.7071 0.7071
vn -1.0000 0.0000 -0.0000
vn -0.7071 -0.7071 0.0000
vn -0.7071 -0.7071 0.0001
vn -1.0000 0.0000 0.0001
vn 0.9046 0.3015 0.3014
vn 0.9046 0.3015 -0.3014
vn 0.0000 -0.0000 -1.0000
vn 0.3015 0.3015 -0.9045
vn -0.3014 0.3015 -0.9046
vn 0.0001 -0.0000 -1.0000
vn -0.3014 0.3015 0.9046
vn 0.3014 0.3015 0.9046
vn 0.9046 -0.3015 0.3014
vn 0.7071 0.7071 -0.0001
vn 0.7071 0.7071 0.0001
vn 0.9046 -0.3015 -0.3014
vn 0.3015 -0.3015 -0.9045
vn -0.0000 0.7071 -0.7071
vn 0.0001 0.7071 -0.7071
vn -0.3014 -0.3015 -0.9046
vn -0.3014 -0.3015 0.9046
vn 0.0001 0.7071 0.7071
vn -0.0001 0.7071 0.7071
vn 0.3014 -0.3015 0.9046
vn -0.7071 0.7071 -0.0000
vn -0.7071 0.7071 -0.0001
vn -1.0000 0.0000 -0.0001
vn 0.7071 -0.0000 -0.7071
vn 0.3014 -0.9046 -0.3014
vn 0.3014 -0.9046 0.3014
vn 0.7071 -0.0000 0.7071
vn -0.7071 0.0000 0.7071
vn -0.3014 -0.9046 0.3014
vn -0.5774 -0.5774 0.5773
vn -0.7072 0.0000 0.7070
vn -0.3014 -0.9046 -0.3014
vn -0.7071 0.0000 -0.7071
vn -0.9046 0.3015 -0.3014
vn -0.9046 -0.3015 0.3014
vn 0.3014 0.9046 0.3014
vn 0.3014 0.9046 -0.3014
vn -0.3014 0.9046 -0.3014
vn -0.7071 0.7071 0.0001
vn -0.9046 -0.3015 -0.3014
vn -0.3014 0.9046 0.3014
vn 0.0001 -0.7071 -0.7071
vn 0.7070 -0.0000 -0.7072
vn 0.5773 -0.5774 -0.5774
vn 0.3014 -0.3015 -0.9046
vn -0.0001 0.7071 -0.7071
vn -0.0001 0.0000 -1.0000
vn -0.0000 -0.7071 -0.7071
vn -0.5773 -0.5774 -0.5773
vn -0.7071 -0.0000 -0.7071
vn -0.0000 0.0000 -1.0000
vn -0.3015 -0.3015 -0.9045
vn -0.9045 0.3015 0.3015
vn -0.9045 -0.3015 -0.3015
vn -0.9045 -0.3015 0.3015
vn -0.5774 -0.5774 -0.5774
vn -0.7071 -0.7071 -0.0000
vn 0.0000 0.0000 -1.0000
vn 0.0000 -0.7071 -0.7071
vn 0.7071 -0.7071 -0.0000
vn 0.7071 -0.7071 0.0000
vn 1.0000 -0.0000 -0.0000
vn -0.9045 0.3015 -0.3015
vn -0.3015 0.3015 0.9045
vn 0.3015 0.3015 0.9045
vn -0.0000 0.0000 1.0000
vn -0.3015 0.3015 -0.9045
vn -0.0000 0.7071 0.7071
vn 0.3015 -0.3015 0.9045
vn -0.3015 -0.3015 0.9045
vn 0.7071 0.7071 -0.0000
vn -0.5774 -0.5774 0.5774
vn 0.5774 -0.5774 0.5774
vn 0.5774 -0.5774 -0.5774
vn 0.9045 0.3015 -0.3015
vn 0.9045 -0.3015 0.3015
vn -0.5774 0.5774 -0.5774
vn -0.5774 0.5774 0.5774
vn 0.5774 0.5774 0.5774
vn 0.9045 -0.3015 -0.3015
vn 0.5774 0.5774 -0.5774
vn 0.0000 -0.7071 0.7071
vn 0.0000 0.7071 0.7071
vn 0.0000 -0.0000 1.0000
vn -0.0000 -0.7071 0.7071
vn 0.9045 0.3015 0.3015
# 98 vertex normals

vt 0.0000 47.7362 0.0000
vt 78.7402 47.7362 0.0000
vt 78.7402 739.6653 0.0000
vt 0.0000 739.6653 0.0000
vt 78.7402 787.4016 0.0000
vt 0.0000 787.4016 0.0000
vt 12.9486 129.4860 0.0000
vt 65.7915 129.4860 0.0000
vt 4.7736 739.6653 0.0000
vt 73.9665 739.6653 0.0000
vt 0.0000 739.6654 0.0000
vt 0.0000 0.0000 0.0000
vt 8.8026 88.0265 0.0000
vt 4.7736 47.7363 0.0000
vt 78.7402 0.0000 0.0000
vt 73.9665 47.7362 0.0000
vt 73.9665 739.6654 0.0000
vt 69.9375 88.0264 0.0000
# 18 texture coords

o Plane002
g Plane002
s 1
f 9/5/9 10/6/10 11/7/11 12/8/12 
s off
f 13/9/13 14/10/14 15/10/15 16/9/16 
s 1
f 17/11/17 18/12/18 19/13/19 20/14/20 
s off
f 12/8/12 21/15/21 22/5/22 9/5/9 
f 23/16/23 24/16/24 25/16/25 26/16/26 
f 14/10/14 27/10/27 28/10/28 15/10/15 
f 29/8/29 30/8/30 31/5/31 32/5/32 
f 33/16/33 34/16/34 35/16/35 36/16/36 
f 37/10/37 38/10/38 39/10/39 40/10/40 
f 41/17/17 42/17/41 43/18/42 44/18/43 
s 1
f 45/16/44 46/19/45 10/6/10 9/5/9 
f 47/9/46 48/10/47 12/8/12 11/7/11 
f 49/16/48 50/19/49 51/20/50 52/18/51 
f 53/10/52 54/9/53 20/14/20 19/13/19 
s off
f 48/10/47 55/10/47 21/15/21 12/8/12 
f 56/16/44 57/16/44 22/5/22 32/5/32 
f 54/9/53 58/9/53 59/21/54 20/14/20 
f 60/16/48 61/16/48 62/18/55 44/18/43 
f 63/10/47 64/10/56 30/8/30 29/8/29 
f 65/16/57 56/16/44 32/5/32 31/5/31 
f 66/9/53 67/9/58 68/14/59 69/14/60 
f 70/16/61 60/16/48 44/18/43 43/18/42 
f 50/9/49 49/10/48 14/10/14 13/9/13 
f 48/10/47 47/9/46 16/9/16 15/10/15 
f 54/16/53 53/19/52 71/19/62 26/16/26 
f 46/19/45 45/16/44 72/16/63 73/19/64 
f 45/16/44 57/16/44 74/16/65 72/16/63 
f 66/16/53 58/16/53 25/16/25 36/16/36 
f 49/10/48 61/10/48 27/10/27 14/10/14 
f 63/10/47 55/10/47 28/10/28 40/10/40 
f 56/16/44 65/16/57 75/16/66 76/16/67 
f 67/16/58 66/16/53 36/16/36 35/16/35 
f 60/10/48 70/10/61 38/10/38 37/10/37 
f 64/10/56 63/10/47 40/10/40 39/10/39 
f 23/16/23 77/19/68 78/19/69 79/16/70 
f 76/16/67 75/16/66 80/16/34 81/16/71 
f 79/16/70 82/16/72 24/16/24 23/16/23 
f 81/16/71 80/16/34 34/16/34 33/16/33 
f 26/16/26 71/19/62 77/19/68 23/16/23 
f 63/10/47 29/8/29 21/15/21 55/10/47 
f 45/16/44 9/5/9 22/5/22 57/16/44 
f 66/9/53 69/14/60 59/21/54 58/9/53 
f 49/16/48 52/18/51 62/18/55 61/16/48 
f 56/16/44 76/16/67 74/16/65 57/16/44 
f 54/16/53 26/16/26 25/16/25 58/16/53 
f 60/10/48 37/10/37 27/10/27 61/10/48 
f 48/10/47 15/10/15 28/10/28 55/10/47 
f 76/16/67 81/16/71 82/16/72 74/16/65 
f 81/16/71 33/16/33 24/16/24 82/16/72 
f 17/11/17 83/11/73 84/17/74 85/17/53 
f 86/11/75 87/11/41 42/17/41 41/17/17 
f 44/18/43 62/18/55 84/17/74 41/17/17 
s 1
f 85/17/53 88/22/76 18/12/18 17/11/17 
s off
f 41/17/17 84/17/74 83/11/73 86/11/75 
f 20/14/20 59/21/54 83/11/73 17/11/17 
f 69/14/60 68/14/59 87/11/41 86/11/75 
s 1
f 89/7/77 90/6/77 91/5/17 92/8/17 
s off
f 93/10/78 94/10/78 95/9/79 96/9/79 
s 1
f 97/13/80 98/12/81 99/11/82 100/14/82 
s off
f 101/5/83 102/15/73 92/8/17 91/5/17 
f 103/16/84 104/16/85 105/16/86 106/16/86 
f 107/10/24 108/10/87 94/10/78 93/10/78 
f 109/5/41 110/8/41 111/8/75 112/5/74 
f 113/16/88 114/16/88 115/16/89 116/16/90 
f 117/10/34 118/10/34 119/10/72 120/10/33 
f 121/18/91 122/17/91 123/17/82 124/18/82 
s 1
f 90/6/77 125/19/92 126/16/48 91/5/17 
f 92/8/17 127/10/53 128/9/76 89/7/77 
f 129/20/93 130/19/94 131/16/44 132/18/47 
f 100/14/82 133/9/47 134/10/93 97/13/80 
s off
f 102/15/73 135/10/53 127/10/53 92/8/17 
f 101/5/83 136/16/48 137/16/48 112/5/74 
f 138/21/95 139/9/47 133/9/47 100/14/82 
f 140/18/96 141/16/44 142/16/44 124/18/82 
f 110/8/41 143/10/97 144/10/53 111/8/75 
f 112/5/74 137/16/48 145/16/98 109/5/41 
f 146/14/91 147/9/99 148/9/47 149/14/100 
f 124/18/82 142/16/44 150/16/101 121/18/91 
f 94/10/78 131/10/44 130/9/94 95/9/79 
f 96/9/79 128/9/76 127/10/53 93/10/78 
f 151/19/102 134/19/93 133/16/47 106/16/86 
f 152/16/47 126/16/48 125/19/92 153/19/93 
f 154/16/89 136/16/48 126/16/48 152/16/47 
f 103/16/84 139/16/47 148/16/47 116/16/90 
f 108/10/87 141/10/44 131/10/44 94/10/78 
f 107/10/24 135/10/53 144/10/53 120/10/33 
f 155/16/103 145/16/98 137/16/48 156/16/104 
f 116/16/90 148/16/47 147/16/99 113/16/88 
f 118/10/34 150/10/101 142/10/44 119/10/72 
f 120/10/33 144/10/53 143/10/97 117/10/34 
f 157/19/92 158/19/105 105/16/86 159/16/48 
f 160/16/103 155/16/103 156/16/104 161/16/104 
f 104/16/85 162/16/90 159/16/48 105/16/86 
f 114/16/88 160/16/103 161/16/104 115/16/89 
f 158/19/105 151/19/102 106/16/86 105/16/86 
f 102/15/73 111/8/75 144/10/53 135/10/53 
f 101/5/83 91/5/17 126/16/48 136/16/48 
f 138/21/95 149/14/100 148/9/47 139/9/47 
f 140/18/96 132/18/47 131/16/44 141/16/44 
f 154/16/89 156/16/104 137/16/48 136/16/48 
f 103/16/84 106/16/86 133/16/47 139/16/47 
f 108/10/87 119/10/72 142/10/44 141/10/44 
f 107/10/24 93/10/78 127/10/53 135/10/53 
f 162/16/90 161/16/104 156/16/104 154/16/89 
f 104/16/85 115/16/89 161/16/104 162/16/90 
f 163/17/100 164/11/106 99/11/82 165/17/44 
f 122/17/91 166/11/91 167/11/96 123/17/82 
f 163/17/100 140/18/96 124/18/82 123/17/82 
s 1
f 98/12/81 168/22/94 165/17/44 99/11/82 
s off
f 164/11/106 163/17/100 123/17/82 167/11/96 
f 164/11/106 138/21/95 100/14/82 99/11/82 
f 166/11/91 146/14/91 149/14/100 167/11/96 
s 2
f 11/7/11 10/6/10 90/6/77 89/7/77 
f 13/9/13 16/9/16 96/9/79 95/9/79 
f 19/13/19 18/12/18 98/12/81 97/13/80 
s 1
f 22/5/22 21/15/21 102/15/73 101/5/83 
f 25/16/25 24/16/24 104/16/85 103/16/84 
f 28/10/28 27/10/27 108/10/87 107/10/24 
f 31/5/31 30/8/30 110/8/41 109/5/41 
f 29/8/29 32/5/32 112/5/74 111/8/75 
f 35/16/35 34/16/34 114/16/88 113/16/88 
f 33/16/33 36/16/36 116/16/90 115/16/89 
f 39/10/39 38/10/38 118/10/34 117/10/34 
f 37/10/37 40/10/40 120/10/33 119/10/72 
f 43/18/42 42/17/41 122/17/91 121/18/91 
s 2
f 10/6/10 46/19/45 125/19/92 90/6/77 
f 47/9/46 11/7/11 89/7/77 128/9/76 
f 51/20/50 50/19/49 130/19/94 129/20/93 
s 4
f 52/18/51 51/20/50 129/20/93 132/18/47 
s 2
f 53/10/52 19/13/19 97/13/80 134/10/93 
f 32/5/32 22/5/22 101/5/83 112/5/74 
s 1
f 30/8/30 64/10/56 143/10/97 110/8/41 
f 65/16/57 31/5/31 109/5/41 145/16/98 
f 68/14/59 67/9/58 147/9/99 146/14/91 
f 70/16/61 43/18/42 121/18/91 150/16/101 
s 2
f 50/9/49 13/9/13 95/9/79 130/9/94 
f 16/9/16 47/9/46 128/9/76 96/9/79 
f 71/19/62 53/19/52 134/19/93 151/19/102 
s 1
f 73/19/64 72/16/63 152/16/47 153/19/93 
s 2
f 46/19/45 73/19/64 153/19/93 125/19/92 
s 1
f 72/16/63 74/16/65 154/16/89 152/16/47 
s 2
f 36/16/36 25/16/25 103/16/84 116/16/90 
f 40/10/40 28/10/28 107/10/24 120/10/33 
s 1
f 75/16/66 65/16/57 145/16/98 155/16/103 
f 67/16/58 35/16/35 113/16/88 147/16/99 
f 38/10/38 70/10/61 150/10/101 118/10/34 
f 64/10/56 39/10/39 117/10/34 143/10/97 
s 2
f 78/19/69 77/19/68 158/19/105 157/19/92 
s 1
f 79/16/70 78/19/69 157/19/92 159/16/48 
f 80/16/34 75/16/66 155/16/103 160/16/103 
f 82/16/72 79/16/70 159/16/48 162/16/90 
f 34/16/34 80/16/34 160/16/103 114/16/88 
s 2
f 77/19/68 71/19/62 151/19/102 158/19/105 
f 21/15/21 29/8/29 111/8/75 102/15/73 
s 1
f 59/21/54 69/14/60 149/14/100 138/21/95 
s 4
f 62/18/55 52/18/51 132/18/47 140/18/96 
s 2
f 27/10/27 37/10/37 119/10/72 108/10/87 
f 74/16/65 82/16/72 162/16/90 154/16/89 
f 24/16/24 33/16/33 115/16/89 104/16/85 
s 4
f 85/17/53 84/17/74 163/17/100 165/17/44 
s 1
f 42/17/41 87/11/41 166/11/91 122/17/91 
f 84/17/74 62/18/55 140/18/96 163/17/100 
s 4
f 88/22/76 85/17/53 165/17/44 168/22/94 
s 2
f 18/12/18 88/22/76 168/22/94 98/12/81 
s 1
f 86/11/75 83/11/73 164/11/106 167/11/96 
s 2
f 83/11/73 59/21/54 138/21/95 164/11/106 
s 1
f 87/11/41 68/14/59 146/14/91 166/11/91 
s 2
f 69/14/60 86/11/75 167/11/96 149/14/100 
# 168 polygons

#
# object Plane003
#

v  893.6448 448.7796 -210.0581
v  106.2432 448.7797 -210.0581
v  106.2432 448.7797 -997.4595
v  893.6448 448.7796 -997.4595
v  106.2432 448.8191 -997.4595
v  106.2432 448.8191 -210.0581
v  893.6448 448.8190 -210.0581
v  893.6448 448.8190 -997.4595
# 8 vertices

vn 0.5774 -0.5774 0.5774
vn -0.5774 -0.5774 0.5774
vn -0.5774 -0.5774 -0.5774
vn 0.5774 -0.5774 -0.5774
vn -0.5774 0.5774 -0.5774
vn -0.5774 0.5774 0.5774
vn 0.5774 0.5774 0.5774
vn 0.5774 0.5774 -0.5774
# 8 vertex normals

vt 0.0000 0.0000 0.0000
vt 196.8504 0.0000 0.0000
vt 196.8504 196.8504 0.0000
vt 0.0000 196.8504 0.0000
# 4 texture coords

o Plane003
g Plane003
s 1
f 169/23/107 170/24/108 171/25/109 172/26/110 
f 173/25/111 174/24/112 175/23/113 176/26/114 
s 2
f 170/24/108 169/23/107 175/23/113 174/24/112 
s 4
f 171/25/109 170/24/108 174/24/112 173/25/111 
s 2
f 172/26/110 171/25/109 173/25/111 176/26/114 
s 4
f 169/23/107 172/26/110 176/26/114 175/23/113 
# 6 polygons

