# 3ds Max Wavefront OBJ Exporter v0.97b - (c)2007 guruware
# File Created: 11.06.2019 18:53:03

#
# object Cylinder001
#

v  0.0000 0.0000 -0.0000
v  8.4125 0.0000 -5.4064
v  10.0000 0.0000 -0.0000
v  4.1541 0.0000 -9.0963
v  -1.4231 0.0000 -9.8982
v  -6.5486 0.0000 -7.5575
v  -9.5949 0.0000 -2.8173
v  -9.5949 0.0000 2.8173
v  -6.5486 0.0000 7.5575
v  -1.4231 0.0000 9.8982
v  4.1542 0.0000 9.0963
v  8.4125 0.0000 5.4064
v  8.4125 80.0000 -5.4064
v  10.0000 80.0000 -0.0000
v  4.1541 80.0000 -9.0963
v  -1.4231 80.0000 -9.8982
v  -6.5486 80.0000 -7.5575
v  -9.5949 80.0000 -2.8173
v  -9.5949 80.0000 2.8173
v  -6.5486 80.0000 7.5575
v  -1.4231 80.0000 9.8982
v  4.1542 80.0000 9.0963
v  8.4125 80.0000 5.4064
v  8.4125 160.0000 -5.4064
v  10.0000 160.0000 -0.0000
v  4.1541 160.0000 -9.0963
v  -1.4231 160.0000 -9.8982
v  -6.5486 160.0000 -7.5575
v  -9.5949 160.0000 -2.8173
v  -9.5949 160.0000 2.8173
v  -6.5486 160.0000 7.5575
v  -1.4231 160.0000 9.8982
v  4.1542 160.0000 9.0963
v  8.4125 160.0000 5.4064
v  8.4125 240.0000 -5.4064
v  10.0000 240.0000 -0.0000
v  4.1541 240.0000 -9.0963
v  -1.4231 240.0000 -9.8982
v  -6.5486 240.0000 -7.5575
v  -9.5949 240.0000 -2.8173
v  -9.5949 240.0000 2.8173
v  -6.5486 240.0000 7.5575
v  -1.4231 240.0000 9.8982
v  4.1542 240.0000 9.0963
v  8.4125 240.0000 5.4064
v  8.4125 320.0000 -5.4064
v  10.0000 320.0000 -0.0000
v  4.1541 320.0000 -9.0963
v  -1.4231 320.0000 -9.8982
v  -6.5486 320.0000 -7.5575
v  -9.5949 320.0000 -2.8173
v  -9.5949 320.0000 2.8173
v  -6.5486 320.0000 7.5575
v  -1.4231 320.0000 9.8982
v  4.1542 320.0000 9.0963
v  8.4125 320.0000 5.4064
v  8.4125 400.0000 -5.4064
v  10.0000 400.0000 -0.0000
v  4.1541 400.0000 -9.0963
v  -1.4231 400.0000 -9.8982
v  -6.5486 400.0000 -7.5575
v  -9.5949 400.0000 -2.8173
v  -9.5949 400.0000 2.8173
v  -6.5486 400.0000 7.5575
v  -1.4231 400.0000 9.8982
v  4.1542 400.0000 9.0963
v  8.4125 400.0000 5.4064
v  0.0000 400.0000 -0.0000
# 68 vertices

vn 0.0000 -1.0000 -0.0000
vn 1.0000 0.0000 -0.0000
vn 0.8413 0.0000 -0.5406
vn 0.4154 0.0000 -0.9096
vn -0.1423 0.0000 -0.9898
vn -0.6549 0.0000 -0.7557
vn -0.9595 0.0000 -0.2817
vn -0.9595 0.0000 0.2817
vn -0.6549 0.0000 0.7557
vn -0.1423 0.0000 0.9898
vn 0.4154 0.0000 0.9096
vn 0.8413 0.0000 0.5406
vn 1.0000 0.0000 0.0000
vn 0.0000 1.0000 -0.0000
# 14 vertex normals

vt 0.1794 0.0245 0.0000
vt 0.1929 0.0455 0.0000
vt 0.1794 0.0494 0.0000
vt 0.2022 0.0348 0.0000
vt 0.2042 0.0209 0.0000
vt 0.1983 0.0081 0.0000
vt 0.1865 0.0005 0.0000
vt 0.1724 0.0005 0.0000
vt 0.1606 0.0081 0.0000
vt 0.1547 0.0209 0.0000
vt 0.1567 0.0348 0.0000
vt 0.1659 0.0455 0.0000
vt 0.1397 0.0005 0.0000
vt 0.1532 0.2003 0.0000
vt 0.1397 0.2003 0.0000
vt 0.1532 0.0005 0.0000
vt 0.0424 0.0005 0.0000
vt 0.0530 0.2003 0.0000
vt 0.0424 0.2003 0.0000
vt 0.0530 0.0005 0.0000
vt 0.0670 0.2003 0.0000
vt 0.0670 0.0005 0.0000
vt 0.0798 0.2003 0.0000
vt 0.0798 0.0005 0.0000
vt 0.0005 0.0005 0.0000
vt 0.0123 0.2003 0.0000
vt 0.0005 0.2003 0.0000
vt 0.0123 0.0005 0.0000
vt 0.0264 0.2003 0.0000
vt 0.0264 0.0005 0.0000
vt 0.0382 0.2003 0.0000
vt 0.0382 0.0005 0.0000
vt 0.0843 0.0005 0.0000
vt 0.0971 0.2003 0.0000
vt 0.0843 0.2003 0.0000
vt 0.0971 0.0005 0.0000
vt 0.1110 0.2003 0.0000
vt 0.1110 0.0005 0.0000
vt 0.1216 0.2003 0.0000
vt 0.1216 0.0005 0.0000
vt 0.1262 0.0005 0.0000
vt 0.1262 0.2003 0.0000
vt 0.1532 0.4001 0.0000
vt 0.1397 0.4001 0.0000
vt 0.0530 0.4001 0.0000
vt 0.0424 0.4001 0.0000
vt 0.0670 0.4001 0.0000
vt 0.0798 0.4001 0.0000
vt 0.0123 0.4001 0.0000
vt 0.0005 0.4001 0.0000
vt 0.0264 0.4001 0.0000
vt 0.0382 0.4001 0.0000
vt 0.0971 0.4001 0.0000
vt 0.0843 0.4001 0.0000
vt 0.1110 0.4001 0.0000
vt 0.1216 0.4001 0.0000
vt 0.1262 0.4001 0.0000
vt 0.1532 0.5999 0.0000
vt 0.1397 0.5999 0.0000
vt 0.0530 0.5999 0.0000
vt 0.0424 0.5999 0.0000
vt 0.0670 0.5999 0.0000
vt 0.0798 0.5999 0.0000
vt 0.0123 0.5999 0.0000
vt 0.0005 0.5999 0.0000
vt 0.0264 0.5999 0.0000
vt 0.0382 0.5999 0.0000
vt 0.0971 0.5999 0.0000
vt 0.0843 0.5999 0.0000
vt 0.1110 0.5999 0.0000
vt 0.1216 0.5999 0.0000
vt 0.1262 0.5999 0.0000
vt 0.1532 0.7997 0.0000
vt 0.1397 0.7997 0.0000
vt 0.0530 0.7997 0.0000
vt 0.0424 0.7997 0.0000
vt 0.0670 0.7997 0.0000
vt 0.0798 0.7997 0.0000
vt 0.0123 0.7997 0.0000
vt 0.0005 0.7997 0.0000
vt 0.0264 0.7997 0.0000
vt 0.0382 0.7997 0.0000
vt 0.0971 0.7997 0.0000
vt 0.0843 0.7997 0.0000
vt 0.1110 0.7997 0.0000
vt 0.1216 0.7997 0.0000
vt 0.1262 0.7997 0.0000
vt 0.1532 0.9995 0.0000
vt 0.1397 0.9995 0.0000
vt 0.0530 0.9995 0.0000
vt 0.0424 0.9995 0.0000
vt 0.0670 0.9995 0.0000
vt 0.0798 0.9995 0.0000
vt 0.0123 0.9995 0.0000
vt 0.0005 0.9995 0.0000
vt 0.0264 0.9995 0.0000
vt 0.0382 0.9995 0.0000
vt 0.0971 0.9995 0.0000
vt 0.0843 0.9995 0.0000
vt 0.1110 0.9995 0.0000
vt 0.1216 0.9995 0.0000
vt 0.1262 0.9995 0.0000
vt 0.2314 0.0235 0.0000
vt 0.2564 0.0235 0.0000
vt 0.2524 0.0370 0.0000
vt 0.2418 0.0462 0.0000
vt 0.2279 0.0482 0.0000
vt 0.2151 0.0424 0.0000
vt 0.2075 0.0306 0.0000
vt 0.2075 0.0165 0.0000
vt 0.2151 0.0046 0.0000
vt 0.2279 -0.0012 0.0000
vt 0.2418 0.0008 0.0000
vt 0.2524 0.0100 0.0000
# 114 texture coords

o Cylinder001
g Cylinder001
s 1
f 1/1/1 2/2/1 3/3/1 
f 1/1/1 4/4/1 2/2/1 
f 1/1/1 5/5/1 4/4/1 
f 1/1/1 6/6/1 5/5/1 
f 1/1/1 7/7/1 6/6/1 
f 1/1/1 8/8/1 7/7/1 
f 1/1/1 9/9/1 8/8/1 
f 1/1/1 10/10/1 9/9/1 
f 1/1/1 11/11/1 10/10/1 
f 1/1/1 12/12/1 11/11/1 
f 1/1/1 3/3/1 12/12/1 
s 8
f 3/13/2 13/14/3 14/15/2 
f 3/13/2 2/16/3 13/14/3 
f 2/17/3 15/18/4 13/19/3 
f 2/17/3 4/20/4 15/18/4 
f 4/20/4 16/21/5 15/18/4 
f 4/20/4 5/22/5 16/21/5 
f 5/22/5 17/23/6 16/21/5 
f 5/22/5 6/24/6 17/23/6 
f 6/25/6 18/26/7 17/27/6 
f 6/25/6 7/28/7 18/26/7 
f 7/28/7 19/29/8 18/26/7 
f 7/28/7 8/30/8 19/29/8 
f 8/30/8 20/31/9 19/29/8 
f 8/30/8 9/32/9 20/31/9 
f 9/33/9 21/34/10 20/35/9 
f 9/33/9 10/36/10 21/34/10 
f 10/36/10 22/37/11 21/34/10 
f 10/36/10 11/38/11 22/37/11 
f 11/38/11 23/39/12 22/37/11 
f 11/38/11 12/40/12 23/39/12 
f 12/41/12 14/15/2 23/42/12 
f 12/41/12 3/13/2 14/15/2 
f 14/15/2 24/43/3 25/44/13 
f 14/15/2 13/14/3 24/43/3 
f 13/19/3 26/45/4 24/46/3 
f 13/19/3 15/18/4 26/45/4 
f 15/18/4 27/47/5 26/45/4 
f 15/18/4 16/21/5 27/47/5 
f 16/21/5 28/48/6 27/47/5 
f 16/21/5 17/23/6 28/48/6 
f 17/27/6 29/49/7 28/50/6 
f 17/27/6 18/26/7 29/49/7 
f 18/26/7 30/51/8 29/49/7 
f 18/26/7 19/29/8 30/51/8 
f 19/29/8 31/52/9 30/51/8 
f 19/29/8 20/31/9 31/52/9 
f 20/35/9 32/53/10 31/54/9 
f 20/35/9 21/34/10 32/53/10 
f 21/34/10 33/55/11 32/53/10 
f 21/34/10 22/37/11 33/55/11 
f 22/37/11 34/56/12 33/55/11 
f 22/37/11 23/39/12 34/56/12 
f 23/42/12 25/44/13 34/57/12 
f 23/42/12 14/15/2 25/44/13 
f 25/44/13 35/58/3 36/59/2 
f 25/44/13 24/43/3 35/58/3 
f 24/46/3 37/60/4 35/61/3 
f 24/46/3 26/45/4 37/60/4 
f 26/45/4 38/62/5 37/60/4 
f 26/45/4 27/47/5 38/62/5 
f 27/47/5 39/63/6 38/62/5 
f 27/47/5 28/48/6 39/63/6 
f 28/50/6 40/64/7 39/65/6 
f 28/50/6 29/49/7 40/64/7 
f 29/49/7 41/66/8 40/64/7 
f 29/49/7 30/51/8 41/66/8 
f 30/51/8 42/67/9 41/66/8 
f 30/51/8 31/52/9 42/67/9 
f 31/54/9 43/68/10 42/69/9 
f 31/54/9 32/53/10 43/68/10 
f 32/53/10 44/70/11 43/68/10 
f 32/53/10 33/55/11 44/70/11 
f 33/55/11 45/71/12 44/70/11 
f 33/55/11 34/56/12 45/71/12 
f 34/57/12 36/59/2 45/72/12 
f 34/57/12 25/44/13 36/59/2 
f 36/59/2 46/73/3 47/74/2 
f 36/59/2 35/58/3 46/73/3 
f 35/61/3 48/75/4 46/76/3 
f 35/61/3 37/60/4 48/75/4 
f 37/60/4 49/77/5 48/75/4 
f 37/60/4 38/62/5 49/77/5 
f 38/62/5 50/78/6 49/77/5 
f 38/62/5 39/63/6 50/78/6 
f 39/65/6 51/79/7 50/80/6 
f 39/65/6 40/64/7 51/79/7 
f 40/64/7 52/81/8 51/79/7 
f 40/64/7 41/66/8 52/81/8 
f 41/66/8 53/82/9 52/81/8 
f 41/66/8 42/67/9 53/82/9 
f 42/69/9 54/83/10 53/84/9 
f 42/69/9 43/68/10 54/83/10 
f 43/68/10 55/85/11 54/83/10 
f 43/68/10 44/70/11 55/85/11 
f 44/70/11 56/86/12 55/85/11 
f 44/70/11 45/71/12 56/86/12 
f 45/72/12 47/74/2 56/87/12 
f 45/72/12 36/59/2 47/74/2 
f 47/74/2 57/88/3 58/89/13 
f 47/74/2 46/73/3 57/88/3 
f 46/76/3 59/90/4 57/91/3 
f 46/76/3 48/75/4 59/90/4 
f 48/75/4 60/92/5 59/90/4 
f 48/75/4 49/77/5 60/92/5 
f 49/77/5 61/93/6 60/92/5 
f 49/77/5 50/78/6 61/93/6 
f 50/80/6 62/94/7 61/95/6 
f 50/80/6 51/79/7 62/94/7 
f 51/79/7 63/96/8 62/94/7 
f 51/79/7 52/81/8 63/96/8 
f 52/81/8 64/97/9 63/96/8 
f 52/81/8 53/82/9 64/97/9 
f 53/84/9 65/98/10 64/99/9 
f 53/84/9 54/83/10 65/98/10 
f 54/83/10 66/100/11 65/98/10 
f 54/83/10 55/85/11 66/100/11 
f 55/85/11 67/101/12 66/100/11 
f 55/85/11 56/86/12 67/101/12 
f 56/87/12 58/89/13 67/102/12 
f 56/87/12 47/74/2 58/89/13 
s 1
f 68/103/14 58/104/14 57/105/14 
f 68/103/14 57/105/14 59/106/14 
f 68/103/14 59/106/14 60/107/14 
f 68/103/14 60/107/14 61/108/14 
f 68/103/14 61/108/14 62/109/14 
f 68/103/14 62/109/14 63/110/14 
f 68/103/14 63/110/14 64/111/14 
f 68/103/14 64/111/14 65/112/14 
f 68/103/14 65/112/14 66/113/14 
f 68/103/14 66/113/14 67/114/14 
f 68/103/14 67/114/14 58/104/14 
# 132 faces

