# 3ds Max Wavefront OBJ Exporter v0.97b - (c)2007 guruware
# File Created: 17.06.2019 18:43:43

#
# object Box_low
#

v  -19.6850 0.0000 19.6850
v  -19.6850 0.0000 -19.6850
v  19.6850 0.0000 -19.6850
v  19.6850 0.0000 19.6850
v  -18.4102 3.9370 18.4102
v  18.4102 3.9370 18.4102
v  18.4102 3.9370 -18.4102
v  -18.4102 3.9370 -18.4102
v  19.6850 2.6622 19.6850
v  -19.6850 2.6622 19.6850
v  19.6850 2.6622 -19.6850
v  -19.6850 2.6622 -19.6850
v  -19.1184 3.7954 19.1184
v  19.1184 3.7954 19.1184
v  19.1184 3.7954 -19.1184
v  -19.1184 3.7954 -19.1184
v  -19.5434 3.3704 19.5434
v  19.5434 3.3704 19.5434
v  19.5434 3.3704 -19.5434
v  -19.5434 3.3704 -19.5434
# 20 vertices

vn -0.5774 -0.5774 0.5774
vn -0.5774 -0.5774 -0.5774
vn 0.5774 -0.5774 -0.5774
vn 0.5774 -0.5774 0.5774
vn -0.0741 0.9945 0.0741
vn 0.0741 0.9945 0.0741
vn 0.0741 0.9945 -0.0741
vn -0.0741 0.9945 -0.0741
vn 0.7011 0.1296 0.7011
vn -0.7011 0.1296 0.7011
vn 0.7011 0.1296 -0.7011
vn -0.7011 0.1296 -0.7011
vn -0.3250 0.8881 0.3250
vn 0.3250 0.8881 0.3250
vn 0.3250 0.8881 -0.3250
vn -0.3250 0.8881 -0.3250
vn -0.6062 0.5148 0.6062
vn 0.6062 0.5148 0.6062
vn 0.6062 0.5148 -0.6062
vn -0.6062 0.5148 -0.6062
# 20 vertex normals

vt 0.0567 0.5724 0.0000
vt 0.0567 0.0956 0.0000
vt 0.5335 0.0956 0.0000
vt 0.5335 0.5724 0.0000
vt 0.5450 0.0653 0.0000
vt 0.9909 0.0653 0.0000
vt 0.9909 0.5112 0.0000
vt 0.5450 0.5112 0.0000
vt 0.0567 0.0480 0.0000
vt 0.5335 0.0480 0.0000
vt 0.5335 0.0803 0.0000
vt 0.0567 0.0803 0.0000
vt 0.0048 0.0005 0.0000
vt 0.4817 0.0005 0.0000
vt 0.4817 0.0327 0.0000
vt 0.0048 0.0327 0.0000
vt 0.0005 0.5249 0.0000
vt 0.0005 0.0480 0.0000
vt 0.0327 0.0480 0.0000
vt 0.0327 0.5249 0.0000
vt 0.4845 0.0005 0.0000
vt 0.9614 0.0005 0.0000
vt 0.9614 0.0327 0.0000
vt 0.4845 0.0327 0.0000
vt 0.5364 0.0567 0.0000
vt 0.9995 0.0567 0.0000
vt 0.9995 0.5198 0.0000
vt 0.5364 0.5198 0.0000
vt 0.0635 0.0940 0.0000
vt 0.0584 0.0889 0.0000
vt 0.5318 0.0889 0.0000
vt 0.5267 0.0940 0.0000
vt 0.0117 0.0465 0.0000
vt 0.0065 0.0413 0.0000
vt 0.4799 0.0413 0.0000
vt 0.4748 0.0465 0.0000
vt 0.0465 0.5180 0.0000
vt 0.0413 0.5232 0.0000
vt 0.0413 0.0498 0.0000
vt 0.0465 0.0549 0.0000
vt 0.4914 0.0465 0.0000
vt 0.4862 0.0413 0.0000
vt 0.9596 0.0413 0.0000
vt 0.9545 0.0465 0.0000
# 44 texture coords

o Box_low
g Box_low
s 1
f 1/1/1 2/2/2 3/3/3 4/4/4 
f 5/5/5 6/6/6 7/7/7 8/8/8 
s 2
f 1/9/1 4/10/4 9/11/9 10/12/10 
s 4
f 4/13/4 3/14/3 11/15/11 9/16/9 
s 2
f 3/17/3 2/18/2 12/19/12 11/20/11 
s 4
f 2/21/2 1/22/1 10/23/10 12/24/12 
s 1
f 5/5/5 13/25/13 14/26/14 6/6/6 
f 6/6/6 14/26/14 15/27/15 7/7/7 
f 7/7/7 15/27/15 16/28/16 8/8/8 
f 8/8/8 16/28/16 13/25/13 5/5/5 
s 8
f 13/29/13 17/30/17 18/31/18 14/32/14 
s 2
f 17/30/17 10/12/10 9/11/9 18/31/18 
s 16
f 14/33/14 18/34/18 19/35/19 15/36/15 
s 4
f 18/34/18 9/16/9 11/15/11 19/35/19 
s 8
f 15/37/15 19/38/19 20/39/20 16/40/16 
s 2
f 19/38/19 11/20/11 12/19/12 20/39/20 
s 16
f 16/41/16 20/42/20 17/43/17 13/44/13 
s 4
f 20/42/20 12/24/12 10/23/10 17/43/17 
# 18 polygons

#
# object Cylinder_low
#

v  11.9066 3.8021 -0.0000
v  11.1886 3.8021 -4.0723
v  11.1886 5.7031 -4.0723
v  11.9066 5.7031 -0.0000
v  9.1210 3.8021 -7.6534
v  9.1210 5.7031 -7.6534
v  5.9533 3.8021 -10.3115
v  5.9533 5.7031 -10.3115
v  2.0676 3.8021 -11.7258
v  2.0676 5.7031 -11.7258
v  -2.0676 3.8021 -11.7258
v  -2.0676 5.7031 -11.7258
v  -5.9533 3.8021 -10.3115
v  -5.9533 5.7031 -10.3115
v  -9.1210 3.8021 -7.6534
v  -9.1210 5.7031 -7.6534
v  -11.1886 3.8021 -4.0723
v  -11.1886 5.7031 -4.0723
v  -11.9066 3.8021 -0.0000
v  -11.9066 5.7031 -0.0000
v  -11.1886 3.8021 4.0723
v  -11.1886 5.7031 4.0723
v  -9.1210 3.8021 7.6534
v  -9.1210 5.7031 7.6534
v  -5.9533 3.8021 10.3115
v  -5.9533 5.7031 10.3115
v  -2.0676 3.8021 11.7258
v  -2.0676 5.7031 11.7258
v  2.0676 3.8021 11.7258
v  2.0676 5.7031 11.7258
v  5.9533 3.8021 10.3115
v  5.9533 5.7031 10.3115
v  9.1210 3.8021 7.6534
v  9.1210 5.7031 7.6534
v  11.1886 3.8021 4.0723
v  11.1886 5.7031 4.0723
v  11.1886 7.6041 -4.0723
v  11.9066 7.6041 -0.0000
v  9.1210 7.6041 -7.6534
v  5.9533 7.6041 -10.3115
v  2.0676 7.6041 -11.7258
v  -2.0676 7.6041 -11.7258
v  -5.9533 7.6041 -10.3115
v  -9.1210 7.6041 -7.6534
v  -11.1886 7.6041 -4.0723
v  -11.9066 7.6041 -0.0000
v  -11.1886 7.6041 4.0723
v  -9.1210 7.6041 7.6534
v  -5.9533 7.6041 10.3115
v  -2.0676 7.6041 11.7258
v  2.0676 7.6041 11.7258
v  5.9533 7.6041 10.3115
v  9.1210 7.6041 7.6534
v  11.1886 7.6041 4.0723
v  11.1886 9.5052 -4.0723
v  11.9066 9.5052 -0.0000
v  9.1210 9.5052 -7.6534
v  5.9533 9.5052 -10.3115
v  2.0676 9.5052 -11.7258
v  -2.0676 9.5052 -11.7258
v  -5.9533 9.5052 -10.3115
v  -9.1210 9.5052 -7.6534
v  -11.1886 9.5052 -4.0723
v  -11.9066 9.5052 -0.0000
v  -11.1886 9.5052 4.0723
v  -9.1210 9.5052 7.6534
v  -5.9533 9.5052 10.3115
v  -2.0676 9.5052 11.7258
v  2.0676 9.5052 11.7258
v  5.9533 9.5052 10.3115
v  9.1210 9.5052 7.6534
v  11.1886 9.5052 4.0723
# 72 vertices

vn 1.0000 0.0000 0.0000
vn 0.9397 0.0000 -0.3420
vn 0.7660 0.0000 -0.6428
vn 0.5000 0.0000 -0.8660
vn 0.1736 0.0000 -0.9848
vn -0.1736 0.0000 -0.9848
vn -0.5000 0.0000 -0.8660
vn -0.7660 0.0000 -0.6428
vn -0.9397 0.0000 -0.3420
vn -1.0000 0.0000 -0.0000
vn -0.9397 0.0000 0.3420
vn -0.7660 0.0000 0.6428
vn -0.5000 0.0000 0.8660
vn -0.1736 0.0000 0.9848
vn 0.1736 0.0000 0.9848
vn 0.5000 0.0000 0.8660
vn 0.7660 0.0000 0.6428
vn 0.9397 0.0000 0.3420
vn 0.6975 0.6701 -0.2539
vn 0.7423 0.6701 0.0000
vn 0.5687 0.6700 -0.4772
vn 0.3712 0.6700 -0.6429
vn 0.1289 0.6700 -0.7311
vn -0.1289 0.6700 -0.7311
vn -0.3712 0.6700 -0.6429
vn -0.5687 0.6700 -0.4772
vn -0.6976 0.6700 -0.2539
vn -0.7423 0.6700 -0.0000
vn -0.6976 0.6700 0.2539
vn -0.5687 0.6700 0.4772
vn -0.3712 0.6700 0.6429
vn -0.1289 0.6700 0.7311
vn 0.1289 0.6700 0.7311
vn 0.3712 0.6700 0.6429
vn 0.5687 0.6700 0.4772
vn 0.6975 0.6701 0.2539
# 36 vertex normals

vt 0.6637 0.6871 0.0000
vt 0.6143 0.6871 0.0000
vt 0.6143 0.6325 0.0000
vt 0.6637 0.6325 0.0000
vt 0.5710 0.6871 0.0000
vt 0.5710 0.6325 0.0000
vt 0.7654 0.5234 0.0000
vt 0.8038 0.5234 0.0000
vt 0.8038 0.5780 0.0000
vt 0.7654 0.5780 0.0000
vt 0.8509 0.5234 0.0000
vt 0.8509 0.5780 0.0000
vt 0.9009 0.5234 0.0000
vt 0.9009 0.5780 0.0000
vt 0.9480 0.5234 0.0000
vt 0.9480 0.5780 0.0000
vt 0.9864 0.5234 0.0000
vt 0.9864 0.5780 0.0000
vt 0.7564 0.8556 0.0000
vt 0.7130 0.8556 0.0000
vt 0.7130 0.8011 0.0000
vt 0.7564 0.8011 0.0000
vt 0.6637 0.8556 0.0000
vt 0.6637 0.8011 0.0000
vt 0.6143 0.8556 0.0000
vt 0.6143 0.8011 0.0000
vt 0.5710 0.8556 0.0000
vt 0.5710 0.8011 0.0000
vt 0.9864 0.8556 0.0000
vt 0.9480 0.8556 0.0000
vt 0.9480 0.8011 0.0000
vt 0.9864 0.8011 0.0000
vt 0.9009 0.8556 0.0000
vt 0.9009 0.8011 0.0000
vt 0.8509 0.8556 0.0000
vt 0.8509 0.8011 0.0000
vt 0.8038 0.8556 0.0000
vt 0.8038 0.8011 0.0000
vt 0.7654 0.8556 0.0000
vt 0.7654 0.8011 0.0000
vt 0.7564 0.6871 0.0000
vt 0.7130 0.6871 0.0000
vt 0.7130 0.6325 0.0000
vt 0.7564 0.6325 0.0000
vt 0.6143 0.5780 0.0000
vt 0.6637 0.5780 0.0000
vt 0.5710 0.5780 0.0000
vt 0.8038 0.6325 0.0000
vt 0.7654 0.6325 0.0000
vt 0.8509 0.6325 0.0000
vt 0.9009 0.6325 0.0000
vt 0.9480 0.6325 0.0000
vt 0.9864 0.6325 0.0000
vt 0.7130 0.7465 0.0000
vt 0.7564 0.7465 0.0000
vt 0.6637 0.7465 0.0000
vt 0.6143 0.7465 0.0000
vt 0.5710 0.7465 0.0000
vt 0.9480 0.7465 0.0000
vt 0.9864 0.7465 0.0000
vt 0.9009 0.7465 0.0000
vt 0.8509 0.7465 0.0000
vt 0.8038 0.7465 0.0000
vt 0.7654 0.7465 0.0000
vt 0.7130 0.5780 0.0000
vt 0.7564 0.5780 0.0000
vt 0.6143 0.5234 0.0000
vt 0.6637 0.5234 0.0000
vt 0.5710 0.5234 0.0000
vt 0.8038 0.6871 0.0000
vt 0.7654 0.6871 0.0000
vt 0.8509 0.6871 0.0000
vt 0.9009 0.6871 0.0000
vt 0.9480 0.6871 0.0000
vt 0.9864 0.6871 0.0000
vt 0.7130 0.6920 0.0000
vt 0.7564 0.6920 0.0000
vt 0.6637 0.6920 0.0000
vt 0.6143 0.6920 0.0000
vt 0.5710 0.6920 0.0000
vt 0.9480 0.6920 0.0000
vt 0.9864 0.6920 0.0000
vt 0.9009 0.6920 0.0000
vt 0.8509 0.6920 0.0000
vt 0.8038 0.6920 0.0000
vt 0.7654 0.6920 0.0000
vt 0.7130 0.5234 0.0000
vt 0.7564 0.5234 0.0000
vt 0.2845 0.6944 0.0000
vt 0.2845 0.7445 0.0000
vt 0.2674 0.7916 0.0000
vt 0.2352 0.8300 0.0000
vt 0.1918 0.8550 0.0000
vt 0.1425 0.8637 0.0000
vt 0.0932 0.8550 0.0000
vt 0.0498 0.8300 0.0000
vt 0.0176 0.7916 0.0000
vt 0.0005 0.7445 0.0000
vt 0.0005 0.6944 0.0000
vt 0.0176 0.6474 0.0000
vt 0.0498 0.6090 0.0000
vt 0.0932 0.5840 0.0000
vt 0.1425 0.5753 0.0000
vt 0.1918 0.5840 0.0000
vt 0.2352 0.6090 0.0000
vt 0.2674 0.6474 0.0000
# 106 texture coords

o Cylinder_low
g Cylinder_low
s 8
f 21/45/21 22/46/22 23/47/22 24/48/21 
f 22/46/22 25/49/23 26/50/23 23/47/22 
f 25/51/23 27/52/24 28/53/24 26/54/23 
f 27/52/24 29/55/25 30/56/25 28/53/24 
f 29/55/25 31/57/26 32/58/26 30/56/25 
f 31/57/26 33/59/27 34/60/27 32/58/26 
f 33/59/27 35/61/28 36/62/28 34/60/27 
f 35/63/28 37/64/29 38/65/29 36/66/28 
f 37/64/29 39/67/30 40/68/30 38/65/29 
f 39/67/30 41/69/31 42/70/31 40/68/30 
f 41/69/31 43/71/32 44/72/32 42/70/31 
f 43/73/32 45/74/33 46/75/33 44/76/32 
f 45/74/33 47/77/34 48/78/34 46/75/33 
f 47/77/34 49/79/35 50/80/35 48/78/34 
f 49/79/35 51/81/36 52/82/36 50/80/35 
f 51/81/36 53/83/37 54/84/37 52/82/36 
f 53/85/37 55/86/38 56/87/38 54/88/37 
f 55/86/38 21/45/21 24/48/21 56/87/38 
f 24/48/21 23/47/22 57/89/22 58/90/21 
f 23/47/22 26/50/23 59/91/23 57/89/22 
f 26/54/23 28/53/24 60/92/24 59/93/23 
f 28/53/24 30/56/25 61/94/25 60/92/24 
f 30/56/25 32/58/26 62/95/26 61/94/25 
f 32/58/26 34/60/27 63/96/27 62/95/26 
f 34/60/27 36/62/28 64/97/28 63/96/27 
f 36/66/28 38/65/29 65/98/29 64/99/28 
f 38/65/29 40/68/30 66/100/30 65/98/29 
f 40/68/30 42/70/31 67/101/31 66/100/30 
f 42/70/31 44/72/32 68/102/32 67/101/31 
f 44/76/32 46/75/33 69/103/33 68/104/32 
f 46/75/33 48/78/34 70/105/34 69/103/33 
f 48/78/34 50/80/35 71/106/35 70/105/34 
f 50/80/35 52/82/36 72/107/36 71/106/35 
f 52/82/36 54/84/37 73/108/37 72/107/36 
f 54/88/37 56/87/38 74/109/38 73/110/37 
f 56/87/38 24/48/21 58/90/21 74/109/38 
f 58/90/21 57/89/22 75/111/39 76/112/40 
f 57/89/22 59/91/23 77/113/41 75/111/39 
f 59/93/23 60/92/24 78/114/42 77/115/41 
f 60/92/24 61/94/25 79/116/43 78/114/42 
f 61/94/25 62/95/26 80/117/44 79/116/43 
f 62/95/26 63/96/27 81/118/45 80/117/44 
f 63/96/27 64/97/28 82/119/46 81/118/45 
f 64/99/28 65/98/29 83/120/47 82/121/46 
f 65/98/29 66/100/30 84/122/48 83/120/47 
f 66/100/30 67/101/31 85/123/49 84/122/48 
f 67/101/31 68/102/32 86/124/50 85/123/49 
f 68/104/32 69/103/33 87/125/51 86/126/50 
f 69/103/33 70/105/34 88/127/52 87/125/51 
f 70/105/34 71/106/35 89/128/53 88/127/52 
f 71/106/35 72/107/36 90/129/54 89/128/53 
f 72/107/36 73/108/37 91/130/55 90/129/54 
f 73/110/37 74/109/38 92/131/56 91/132/55 
f 74/109/38 58/90/21 76/112/40 92/131/56 
s 1
f 92/133/56 76/134/40 75/135/39 77/136/41 78/137/42 79/138/43 80/139/44 81/140/45 82/141/46 83/142/47 84/143/48 85/144/49 86/145/50 87/146/51 88/147/52 89/148/53 90/149/54 91/150/55 
# 55 polygons

